<?xml version="1.0" encoding="utf-8"?>
<!-- Generator: Adobe Illustrator 19.0.0, SVG Export Plug-In . SVG Version: 6.00 Build 0)  -->
<svg version="1.1" id="Capa_1" xmlns="http://www.w3.org/2000/svg" xmlns:xlink="http://www.w3.org/1999/xlink" x="0px" y="0px"
	 viewBox="-65 156.9 480.1 480.1" style="enable-background:new -65 156.9 480.1 480.1;" xml:space="preserve">
<g>
	<g>
		<path d="M-54.9,328.3C-24.5,226.7,68.9,157,175,156.9c80.8,0.3,156.1,41,200.6,108.5c4.1,7.4,6.6,15.7,7.4,24.2v-84.6h32v128H287
			v-32h72.3C323.5,232,252.7,188.4,175,187.3C59.6,188.1-33.8,281.5-34.6,396.9c0.8,115.4,94.2,208.8,209.6,209.6
			c92.1-1.1,172.9-61.9,199.4-150.1l30.7,9.1c-37.9,127-171.6,199.2-298.6,161.3S-92.8,455.3-54.9,328.3z"/>
	</g>
</g>
</svg>
