<?xml version="1.0" encoding="utf-8"?>
<!-- Generator: Adobe Illustrator 19.0.0, SVG Export Plug-In . SVG Version: 6.00 Build 0)  -->
<svg version="1.1" id="Layer_1" xmlns="http://www.w3.org/2000/svg" xmlns:xlink="http://www.w3.org/1999/xlink" x="0px" y="0px"
	 viewBox="-512.8 690.8 61.9 88.8" style="enable-background:new -512.8 690.8 61.9 88.8;" xml:space="preserve">
<path d="M-477.6,776.8c0-0.9-1.6-0.6-1.6-0.6l-6.1,0.4v1.3l6.1,0.4c0,0,1.6,0.3,1.6-0.6l0.3,0.2c0,0,0.4,1.5,1.2,0.3
	c0,0,0.7-0.9,1,0.2c0,0,0.9,1.9,1.8-0.3c0,0,0.5-0.3,0.6,0.1c0.1,0.4,0.9,0.7,1.4-0.1v-1.7c-0.5-0.8-1.3-0.5-1.4-0.1
	c-0.1,0.4-0.6,0.1-0.6,0.1c-0.8-2.2-1.8-0.3-1.8-0.3c-0.3,1.1-1,0.2-1,0.2c-0.8-1.3-1.2,0.3-1.2,0.3L-477.6,776.8z"/>
<path d="M-466.7,776.8"/>
<path d="M-466.7,778.6"/>
<path d="M-466.7,776.7"/>
<path d="M-466.7,778.3c0,0,9.4-0.8,12.2-2.4c1.8-1.1,10.4-6.1-8.1-12.5c0,0-7.7-2.5-12.6-2.5v1.3c4.4,0,12,2.4,12,2.4
	c18.4,6.7,6.8,10,6.1,10.2c-0.6,0.2-5.3,1.2-6.3,1.5c-0.4,0.1-3.4,0.3-3.4,0.3v-0.4c0-1.4-1.3-1.2-1.3-1.2h-1.8
	c-1.2,0-1.2,1.2-1.2,1.2v2.2c0,0,0,1.2,1.2,1.2h1.8c0,0,1.3,0.2,1.3-1.2L-466.7,778.3L-466.7,778.3z"/>
<path d="M-499.7,722.2c-0.7,0.6-0.1,1.1-0.1,1.1s0.6,0.6,1.4,1.3c0.8,0.6,1.2,0.1,1.2,0.1s0.8-1,1.6-1.8c0.8-0.8,0.1-1.3,0.1-1.3
	s-0.5-0.5-1.3-1.2c-0.8-0.7-1.3-0.1-1.3-0.1l-0.5,0.6l-0.3-0.1c-3-1.3-14.5,3.6-13.9,20.7c0.6,17.2,9.2,20.8,10.7,21.6
	s7.2,0.3,8.4,0.1c1-0.1,5.8-0.9,5.8-0.9V761c0,0-5.3,0.8-6,0.9c-0.6,0.1-15.6,5.2-17.4-20.3C-511.3,741.6-511.4,723.2-499.7,722.2
	L-499.7,722.2z"/>
<path d="M-489.2,728.5c-0.8,0.4-0.9,0.9-1,1.2c0,0-5-3.7-5.2-3.8c-0.2-0.1,0-0.6,0-0.6s-1.3,1-1-0.7l1.2-1.5c0,0,1.2-0.8,0.8,0.9
	c0,0,0.2-0.3,0.6,0C-493.4,724.2-489.2,728.5-489.2,728.5z"/>
<path d="M-482.5,731.6c0,0-1.1,0-1.1-1.6c0,0,0.1-0.8,0.6-1.1c0.5-0.3-0.9-2-1-2.1s-0.4-0.4-0.4-0.4v-0.5c0,0,1.8-2.5,1.8-2.9
	c0.1-0.4,0.1-1.6,0.1-1.6s-0.5-1.4-1-2c-0.5-0.6-1.7-2.2,0-4.1c1.7-1.9,0.1-4.4,0-4.4s-1.8-3.1-1.8-4.4h7.5c0,1.3-1.6,4.4-1.7,4.4
	c-0.1,0-1.7,2.5,0,4.4c1.7,1.9,0.5,3.5,0,4.1c-0.5,0.6-1,2-1,2s0.1,1.2,0.1,1.6c0.1,0.4,1.8,2.9,1.8,2.9v0.5c0,0-0.3,0.3-0.4,0.4
	c-0.1,0.1-1.5,1.9-1,2.1c0.5,0.2,0.6,1.1,0.6,1.1c0,1.7-1.1,1.6-1.1,1.6v0.6c0,0,0,0.5,0,1.6c0,1.1,1,0.8,1,0.8l1.6-2.2
	c-0.8-2,0.9-1.8,1.5-1.7s1,0.7,1,0.7c1,2.1-1.4,1.7-1.4,1.7l-1.2,1.5c-1.1,1.1-0.8,1.1-0.8,1.1c0.9,1.1-0.1,2.2-0.1,2.2
	s-0.8,0.4,0,1.3c0.8,0.9,1.4,2.5,1.4,3.3s-0.8,1.1-0.8,1.1c-2.9,0.8-5.7,0.2-6.7,0c-1-0.2-0.9-1-0.9-1c0-1.6,1.5-3.4,1.5-3.4
	s1-0.4,0-1.3c-1-1-0.2-2.3-0.2-2.3c-2.7-4.4-3.9-3.7-3.9-3.7c-1.5,0.4-1.5-1.1-1.4-1.3s0-0.2-0.1-0.2s-0.3,0.2-0.2-0.3l0.1-0.3
	c0,0,0.7-1,1.2-1.1c0.5-0.1,0.3,0.1,0.3,0.2c0,0.1,0.1,0.1,0.2,0.1c0.2-0.1,1.7-0.1,1.3,1.4c0,0,2.6,2.3,3.3,4.2
	c0,0,0.7,0.6,0.8-1.2L-482.5,731.6z"/>
<path d="M-478.5,703.1c0,0,5.2,0,5.9,0c0.7,0,1,0.1,1,0.1c0,0.7-1.8,2-2.2,2.4c-0.4,0.4-3.5,0.2-3.5,0.2h-8c0,0-3.1,0.1-3.5-0.2
	c-0.4-0.4-2.2-1.6-2.2-2.4c0,0,0.3-0.1,1-0.1c0.7,0,5.8,0,5.8,0H-478.5z"/>
<path d="M-481,690.8c2.3,0,4,0.4,3.3,1c-0.7,0.6-2.1,4.4-2.1,4.4s-0.2,1.7,0.2,1.7s0.3,0.3,0.3,0.3s0,1.4,0,2.1s-0.6,0.5-0.6,0.5
	c0,1.6,1,1.7,1,1.7h-4.7c0,0,1-0.1,1-1.7c0,0-0.6,0.2-0.6-0.5s0-2.1,0-2.1s-0.1-0.3,0.3-0.3c0.4,0,0.2-1.7,0.2-1.7s-1.4-3.8-2.1-4.4
	c-0.7-0.6,1-1,3.3-1C-481.6,690.8-481,690.8-481,690.8z"/>
<path d="M-484.6,744.4c-0.4-0.1-0.3,0-0.3,0l0.2,4.8c0,0,0.5,1.2,0.9,1.2v2.5c0,0-1.4,4.2-2.6,5.2c-1,0.9-1,3.3-1,3.7v3.4
	c0,0-1.8,0.7-1.7,2.2c0,1.4,2.1,4.2,6.8,4.2h1.9c4.6,0,6.7-2.8,6.8-4.2c0-1.4-1.7-2.2-1.7-2.2v-3.4c0-0.4,0-2.8-1-3.7
	c-1.2-1-2.6-5.2-2.6-5.2v-2.5c0.4,0,0.9-1.2,0.9-1.2l0.2-4.8c0,0-0.2,0-0.4,0.1C-478.6,744.6-481.6,745.1-484.6,744.4z"/>
</svg>
