<?xml version="1.0" encoding="utf-8"?>
<!-- Generator: Adobe Illustrator 19.0.0, SVG Export Plug-In . SVG Version: 6.00 Build 0)  -->
<svg version="1.1" id="Layer_1" xmlns="http://www.w3.org/2000/svg" xmlns:xlink="http://www.w3.org/1999/xlink" x="0px" y="0px"
	 viewBox="-149 250.3 312.6 292.8" style="enable-background:new -149 250.3 312.6 292.8;" xml:space="preserve">
<g>
	<path d="M-20.4,447.6l-5.1,9.5l7.2,19.1c4.7-1.8,8.4-5.9,9.4-11.2C-7.3,457-12.4,449.3-20.4,447.6z"/>
	<circle cx="-50.9" cy="276.2" r="25.9"/>
	<path d="M66.3,452.8l2.5,6.9L55,525c-1.7,8.1,3.5,16.1,11.6,17.8c1,0.2,2.1,0.3,3.1,0.3c6.9,0,13.2-4.8,14.7-11.9l14.3-67.4
		l-5.5-4.8L66.3,452.8L66.3,452.8z"/>
	<circle cx="51.5" cy="276.2" r="25.9"/>
	<path d="M-38.6,456.3l16.6-31.9c2.8-5.5,4.3-11.5,4.3-17.7v-79.3c0-9.7-7.8-17.5-17.5-17.5h-31.2l-31.2,3.3l-31.3-24.5
		c-5.4-4.3-13.3-3.3-17.5,2.1c-4.3,5.4-3.3,13.3,2.1,17.5l35.1,27.5c2.2,1.7,4.9,2.7,7.7,2.7c0.3,0,17.5-1.4,17.5-1.4v7.9l1.8,0.3
		l34.7-22.6l-32,35.2l-42.4-6.5c-6.7-1-13.3,3.3-14.5,9.9c-1.1,5.6,1.7,11,6.4,13.5c1.2,0.6,2.5,1.1,3.9,1.3l49.4,7.5
		c4.1,0.6,8.3-0.8,11.1-3.9l35.3-38.8l-24.8,44.6c-0.5,0.9-1.1,1.7-1.8,2.4c-4.6,5-11.2,7.9-18,7.9c-1.2,0-2.5-0.1-3.7-0.3l-5.5-0.8
		v7.8l-33.9,32.8c-4,3.9-5.5,9.7-4,15.1c1.6,5.4,6,9.4,11.5,10.5l30.6,5.9l-0.7-1.9c-2.7-7.3-2.2-15.3,1.4-22.2l13.5-25.4h13.6
		l-16.4,31c-2,3.8-2.3,8.3-0.8,12.3l27.5,72.9c2.3,6,8,9.7,14,9.7c1.8,0,3.5-0.3,5.3-1c7.8-2.9,11.7-11.6,8.7-19.3L-38.6,456.3
		L-38.6,456.3z"/>
	<path d="M158.4,459.9L115.6,423c-1.8-1.6-4-2.7-6.3-3.2l-8.9-2.1c-0.5,2.4-1.4,4.8-2.7,7c-4.4,7.5-12.5,12.2-21.2,12.2
		c-1.6,0-3.1-0.1-4.6-0.4c-2.7-0.5-5.3-1.5-7.6-2.9l-43.2-25c-1-0.6-1.9-1.2-2.7-1.8v11.1c0.3,6.6,4.8,12.4,11.6,14l69,16.3l40,34.5
		c2.8,2.4,6.3,3.6,9.8,3.6c0,0,0,0,0,0c4.2,0,8.4-1.8,11.4-5.2C165.3,474.7,164.6,465.3,158.4,459.9L158.4,459.9z"/>
	<path d="M27,398.2l43.2,25c1.2,0.7,2.6,1.2,3.9,1.5c5.1,1,10.4-1.3,13.2-6c3.5-6,1.4-13.6-4.5-17.1l-37.4-21.7l-2.9-47.5l12.9,39.4
		l29.2,16.9v-37.9l19.9,16.3c2.3,1.9,5.1,2.8,7.9,2.8c2.6,0,5.1-0.8,7.3-2.4l36.3-26.3c5.6-4.1,6.8-11.9,2.8-17.5
		c-4-5.6-11.9-6.8-17.5-2.8l-28.5,20.6l-33.5-27.4c-1.2-1-6-4.3-12.4-4.3H35.7c-19.9,0-19,13.1-18.7,17.4l3.7,60.8
		C21,392.3,23.3,396.1,27,398.2L27,398.2z"/>
</g>
</svg>
