<?xml version="1.0" encoding="utf-8"?>
<!-- Generator: Adobe Illustrator 19.0.0, SVG Export Plug-In . SVG Version: 6.00 Build 0)  -->
<svg version="1.1" id="Layer_1" xmlns="http://www.w3.org/2000/svg" xmlns:xlink="http://www.w3.org/1999/xlink" x="0px" y="0px"
	 viewBox="-49 162.3 512 469.3" style="enable-background:new -49 162.3 512 469.3;" xml:space="preserve">
<g>
	<g>
		<g>
			<path d="M420.3,311.7h-5.9l-73.3-128c-5.7-9.9-14.8-17-25.8-19.9c-4.1-1.1-8.2-1.6-12.3-1.4c-6.9,0.2-13.7,2.2-19.8,5.7
				L-27.8,349.2c-13.6,7.9-21.2,22.4-21.2,37.2c0,7.2,1.9,14.4,5.7,21L15,509.3V589c0,23.5,19.1,42.7,42.7,42.7h362.7
				c23.5,0,42.7-19.1,42.7-42.7V354.3C463,330.8,443.9,311.7,420.3,311.7z M15,466.3l-8.1-14.2l8.1-4.7V466.3z M15,422.6l-18.7,10.9
				l-10.5-18.4l29.3-17V422.6z M15,354.3v19.1l-39.9,23.2c-5.8-10.2-2.3-23.2,7.7-29l32.7-19C15.3,350.5,15,352.4,15,354.3z
				 M389.8,311.7H248l106.4-61.9L389.8,311.7z M343.8,231.2l-138.2,80.4h-42.1l169.8-98.8L343.8,231.2z M294,186.5
				c4.8-2.8,10.5-3.6,15.8-2.1c5.4,1.5,10,5,12.8,9.9l0,0L121.1,311.7H79L294,186.5z M441.7,589c0,11.8-9.6,21.3-21.3,21.3H57.7
				c-11.8,0-21.3-9.6-21.3-21.3V354.3c0-11.8,9.6-21.3,21.3-21.3h362.7c11.8,0,21.3,9.6,21.3,21.3V589z"/>
			<path d="M355,482.3c-7,0-13.8,1.6-20,4.8c-6.2-3.1-13-4.8-20-4.8c-24.3,0-44,19.1-44,42.7c0,23.5,19.7,42.7,44,42.7
				c7,0,13.8-1.6,20-4.8c6.2,3.1,13,4.8,20,4.8c24.3,0,44-19.1,44-42.7C399,501.5,379.3,482.3,355,482.3z M355,546.3
				c-4.9,0-9.7-1.6-13.7-4.5c-1.9-1.4-4.1-2-6.3-2c-2.2,0-4.4,0.7-6.3,2c-4.1,2.9-8.8,4.5-13.7,4.5c-12.5,0-22.7-9.6-22.7-21.3
				s10.2-21.3,22.7-21.3c4.9,0,9.7,1.6,13.7,4.5c3.7,2.7,8.8,2.7,12.5,0c4.1-2.9,8.8-4.5,13.7-4.5c12.5,0,22.7,9.6,22.7,21.3
				S367.5,546.3,355,546.3z"/>
			<path d="M89.7,503.7h106.7c5.9,0,10.7-4.8,10.7-10.7s-4.8-10.7-10.7-10.7H89.7c-5.9,0-10.7,4.8-10.7,10.7S83.8,503.7,89.7,503.7z
				"/>
			<path d="M239,546.3H89.7c-5.9,0-10.7,4.8-10.7,10.7s4.8,10.7,10.7,10.7H239c5.9,0,10.7-4.8,10.7-10.7S244.9,546.3,239,546.3z"/>
		</g>
	</g>
</g>
</svg>
