<?xml version="1.0" encoding="utf-8"?>
<!-- Generator: Adobe Illustrator 19.0.0, SVG Export Plug-In . SVG Version: 6.00 Build 0)  -->
<svg version="1.1" id="Layer_1" xmlns="http://www.w3.org/2000/svg" xmlns:xlink="http://www.w3.org/1999/xlink" x="0px" y="0px"
	 viewBox="-49 141 512.1 512" style="enable-background:new -49 141 512.1 512;" xml:space="preserve">
<g>
	<g>
		<g>
			<path d="M17.2,410.4c1.6,2.2,4.2,3.6,6.9,3.6h365.7c2.8,0,5.3-1.3,6.9-3.6l30.5-42.7c1.9-2.6,2.1-6,0.6-8.9
				c-1.5-2.8-4.4-4.6-7.6-4.6h-17.3c-4.4-101.4-86.1-183.2-187.5-187.5V158h17.1c4.7,0,8.5-3.8,8.5-8.5c0-4.7-3.8-8.5-8.5-8.5h-51.2
				c-4.7,0-8.5,3.8-8.5,8.5c0,4.7,3.8,8.5,8.5,8.5h17.1v8.7C97,171.1,15.3,252.8,10.9,354.3H-6.3c-3.2,0-6.1,1.8-7.6,4.6
				c-1.5,2.8-1.2,6.3,0.6,8.9L17.2,410.4z M66.6,281.7c29-50,82.8-81,140.4-81c4.7,0,8.5,3.8,8.5,8.5c0,4.7-3.8,8.5-8.5,8.5
				c-51.5,0-99.7,27.8-125.6,72.5c-1.6,2.7-4.4,4.3-7.4,4.3c-1.5,0-2.9-0.4-4.3-1.2C65.7,291,64.3,285.8,66.6,281.7z M19.3,371.4
				h375.5h9L385.5,397H28.5l-18.3-25.6H19.3L19.3,371.4z"/>
			<path d="M458.6,456.9c-15-21.2-30.2-21.6-68.3-1.5l-73.6,45c-5.8,3.1-14.7,5-25.1,6.2c-8,0.9-15.4,4.4-22.1,8.9
				c-0.9,0.6-1.8,1-2.8,1h-82.9c-25.6,0-25.6,12.8-25.6,17.1c0,4.7-3.8,8.5-8.5,8.5s-8.5-3.8-8.5-8.5c0-21.4,15.9-34.1,42.7-34.1
				h79.8c0-5.9-2.3-12.5-7.1-19.6c-13.4-20-36.3-31.9-61.3-31.9h-33.3c-18.1,0-35.4-5.6-48.9-15.7c-30.6-23.1-78.8,1.9-102.3,16.8
				v-17.9H-49V653h59.7v-25.6h110.9c17.5,0,34.9-1.3,52.2-3.9l110.6-16.8c4-0.1,8.1-0.5,11.7-1.3c10.2-1.4,19.9-6.3,28.2-14.1
				l129.3-100.7l0.2-0.2C464,482.1,466.1,467.5,458.6,456.9z M-6.3,461v166.3v8.5h-25.6V448.2h25.6V461z"/>
		</g>
	</g>
</g>
</svg>
