<?xml version="1.0" encoding="utf-8"?>
<!-- Generator: Adobe Illustrator 19.0.0, SVG Export Plug-In . SVG Version: 6.00 Build 0)  -->
<svg version="1.1" id="Capa_1" xmlns="http://www.w3.org/2000/svg" xmlns:xlink="http://www.w3.org/1999/xlink" x="0px" y="0px"
	 viewBox="-37 154.3 435.8 485.7" style="enable-background:new -37 154.3 435.8 485.7;" xml:space="preserve">
<g>
	<g>
		<path d="M343.8,323.1c14.9-14.6,24.2-35,24.2-57.5c0-4.2-0.3-8.4-1-12.4l-49.2,14.1l-6.9,8L343.8,323.1z"/>
		<path d="M299.9,186v57.2h11.6l48-13.8C348,206.7,326,190.1,299.9,186z"/>
		<path d="M249.5,336.7c11.3,6.1,24.2,9.5,37.9,9.5c13,0,25.3-3.1,36.1-8.5L293,293.1L249.5,336.7z"/>
		<path d="M275,186c-24.9,3.9-46.1,19.2-57.9,40.4l50.3,16.8h7.6V186z"/>
		<path d="M366.2,186.9c-21-21-49-32.6-78.7-32.6s-57.7,11.6-78.7,32.6c-15.7,15.7-26.1,35.2-30.4,56.4h20.4
			c10-39.7,46-69.1,88.7-69.1c50.4,0,91.5,41,91.5,91.5s-41,91.5-91.5,91.5c-16.7,0-32.4-4.5-46-12.4L227,359.2
			c17.9,11.6,38.7,17.8,60.5,17.8c29.7,0,57.7-11.6,78.7-32.6c21-21,32.6-49,32.6-78.7C398.8,235.9,387.2,207.9,366.2,186.9z"/>
		<polygon points="147.7,608.6 147.7,412.4 293.3,266.9 293.3,256.1 -37,256.1 -37,266.9 108.5,412.4 108.5,608.6 55,608.6 
			43.5,640 212.7,640 201.2,608.6 		"/>
		<polygon points="78.4,243.3 7.8,172.7 -6.3,186.8 50.1,243.3 		"/>
	</g>
</g>
</svg>
