<?xml version="1.0" encoding="utf-8"?>
<!-- Generator: Adobe Illustrator 19.0.0, SVG Export Plug-In . SVG Version: 6.00 Build 0)  -->
<svg version="1.1" id="Capa_1" xmlns="http://www.w3.org/2000/svg" xmlns:xlink="http://www.w3.org/1999/xlink" x="0px" y="0px"
	 viewBox="-70.8 188.9 366.8 417.1" style="enable-background:new -70.8 188.9 366.8 417.1;" xml:space="preserve">
<g>
	<g>
		<path d="M57.3,522.1c9.4,0,17-7.6,17-17V205.9c0-6.5-3.7-12.5-9.4-15.3c-5.7-2.8-12.7-2.3-17.9,1.7L-64,275.6
			c-7.6,5.7-9.1,16.1-3.4,23.8c5.7,7.6,16.1,9.1,23.8,3.4l83.9-62.9v265.2C40.3,514.5,47.9,522.1,57.3,522.1z"/>
		<path d="M167.8,275.6c-9.4,0-17,7.7-17,17V589c0,6.5,3.7,12.2,9.4,15.3c2.5,1.1,5.1,1.7,7.6,1.7c3.7,0,7.1-1.1,10.2-3.4
			l111.1-81.9c7.6-5.7,9.1-16.2,3.7-23.8c-5.7-7.6-16.1-9.1-23.8-3.7l-84.1,62V292.6C184.8,283.3,177.1,275.6,167.8,275.6z"/>
	</g>
</g>
</svg>
