<?xml version="1.0" encoding="utf-8"?>
<!-- Generator: Adobe Illustrator 18.0.0, SVG Export Plug-In . SVG Version: 6.00 Build 0)  -->
<!DOCTYPE svg PUBLIC "-//W3C//DTD SVG 1.1//EN" "http://www.w3.org/Graphics/SVG/1.1/DTD/svg11.dtd">
<svg version="1.1" id="Capa_1" xmlns="http://www.w3.org/2000/svg" xmlns:xlink="http://www.w3.org/1999/xlink" x="0px" y="0px"
	 viewBox="0 0 440.3 440.3" enable-background="new 0 0 440.3 440.3" xml:space="preserve">
<g>
	<path d="M436.5,0.9c-2.5-1.1-5.5,0.1-9.1,3.7L224.7,207.3c-1.5,1.5-2.8,3.3-3.7,5.4V10c0-4.9-1.2-8-3.7-9.1
		c-2.5-1.1-5.5,0.1-9.1,3.7L5.4,207.3c-3.6,3.6-5.4,7.9-5.4,12.8s1.8,9.2,5.4,12.8l202.7,202.7c3.6,3.6,6.7,4.9,9.1,3.7
		c2.5-1.1,3.7-4.2,3.7-9.1V227.5c1,1.9,2.2,3.7,3.7,5.4l202.7,202.7c3.6,3.6,6.7,4.9,9.1,3.7c2.5-1.1,3.7-4.2,3.7-9.1V10
		C440.2,5,439,2,436.5,0.9z"/>
</g>
</svg>
