<?xml version="1.0" encoding="utf-8"?>
<!-- Generator: Adobe Illustrator 18.0.0, SVG Export Plug-In . SVG Version: 6.00 Build 0)  -->
<!DOCTYPE svg PUBLIC "-//W3C//DTD SVG 1.1//EN" "http://www.w3.org/Graphics/SVG/1.1/DTD/svg11.dtd">
<svg version="1.1" id="Layer_1" xmlns="http://www.w3.org/2000/svg" xmlns:xlink="http://www.w3.org/1999/xlink" x="0px" y="0px"
	 viewBox="0 0 35 32" enable-background="new 0 0 35 32" xml:space="preserve">
<title>review</title>
<path d="M34.8,9.5C34.3,4,30.4,0,25.5,0c-3.2,0-6.2,1.8-8,4.6C15.9,1.7,13,0,9.8,0C4.9,0,1,4,0.5,9.5c-0.1,0.3-0.2,1.5,0.3,3.6
	c0.7,3,2.4,5.8,4.8,7.9l12,10.9l12.2-10.9c2.4-2.2,4-4.9,4.8-7.9C35,11.1,34.9,9.8,34.8,9.5L34.8,9.5z M17.6,5.8
	c1.6-2.7,4.4-5,7.6-5c4.6,0,8.3,3.8,8.8,9.1c0.1,0.3,0.2,1.5-0.3,3.4l0,0c-0.7,2.8-2.3,5.5-4.5,7.6L17.6,31.2"/>
<title>review.selected</title>
</svg>
