<?xml version="1.0" encoding="utf-8"?>
<!-- Generator: Adobe Illustrator 18.0.0, SVG Export Plug-In . SVG Version: 6.00 Build 0)  -->
<!DOCTYPE svg PUBLIC "-//W3C//DTD SVG 1.1//EN" "http://www.w3.org/Graphics/SVG/1.1/DTD/svg11.dtd">
<svg version="1.1" id="Layer_1" xmlns="http://www.w3.org/2000/svg" xmlns:xlink="http://www.w3.org/1999/xlink" x="0px" y="0px"
	 viewBox="0 0 35 32" enable-background="new 0 0 35 32" xml:space="preserve">
<title>review</title>
<path d="M34.5,9.5C33.9,4,30,0,25.1,0c-3.2,0-6.2,1.8-8,4.6C15.5,1.7,12.7,0,9.4,0C4.5,0,0.6,4,0.1,9.5C0,9.8-0.1,11.1,0.3,13.2
	c0.7,3,2.4,5.8,4.8,7.9l12,10.9l12.2-10.9c2.4-2.2,4-4.9,4.8-7.9C34.6,11.1,34.5,9.8,34.5,9.5L34.5,9.5z M33.3,13.3
	c-0.7,2.8-2.3,5.5-4.5,7.6L17.2,31.2L5.8,20.9c-2.3-2.1-3.8-4.7-4.5-7.6c-0.5-2-0.3-3.2-0.3-3.4c0.5-5.2,4.2-9.1,8.8-9.1
	c3,0,5.8,2.3,7.4,5c1.6-2.7,4.4-5,7.6-5c4.6,0,8.3,3.8,8.8,9.1C33.6,10.1,33.7,11.3,33.3,13.3L33.3,13.3z"/>
</svg>
