<?xml version="1.0" encoding="utf-8"?>
<!-- Generator: Adobe Illustrator 18.0.0, SVG Export Plug-In . SVG Version: 6.00 Build 0)  -->
<!DOCTYPE svg PUBLIC "-//W3C//DTD SVG 1.1//EN" "http://www.w3.org/Graphics/SVG/1.1/DTD/svg11.dtd">
<svg version="1.1" id="Capa_1" xmlns="http://www.w3.org/2000/svg" xmlns:xlink="http://www.w3.org/1999/xlink" x="0px" y="0px"
	 viewBox="0 0 440.3 440.3" enable-background="new 0 0 440.3 440.3" xml:space="preserve">
<g>
	<path d="M3.7,439.4c2.5,1.1,5.5-0.1,9.1-3.7L215.6,233c1.5-1.5,2.8-3.3,3.7-5.4v202.7c0,4.9,1.2,8,3.7,9.1c2.5,1.1,5.5-0.1,9.1-3.7
		L434.8,233c3.6-3.6,5.4-7.9,5.4-12.8s-1.8-9.2-5.4-12.8L232.1,4.6c-3.6-3.6-6.7-4.9-9.1-3.7c-2.5,1.1-3.7,4.2-3.7,9.1v202.7
		c-1-1.9-2.2-3.7-3.7-5.4L12.8,4.6C9.2,1,6.2-0.3,3.7,0.9C1.2,2,0,5,0,10l0,420.3C0,435.2,1.2,438.2,3.7,439.4z"/>
</g>
</svg>
