<?xml version="1.0" encoding="iso-8859-1"?>
<!-- Generator: Adobe Illustrator 19.0.0, SVG Export Plug-In . SVG Version: 6.00 Build 0)  -->
<svg version="1.1" id="Layer_1" xmlns="http://www.w3.org/2000/svg" xmlns:xlink="http://www.w3.org/1999/xlink" x="0px" y="0px"
	 viewBox="0 0 512 512" style="enable-background:new 0 0 512 512;" xml:space="preserve">
<g>
	<g>
		<g>
			<path d="M341.333,277.333c-11.563,0-21.333,14.656-21.333,32s9.771,32,21.333,32c11.563,0,21.333-14.656,21.333-32
				S352.896,277.333,341.333,277.333z"/>
			<path d="M256,202.667c0-17.344-9.771-32-21.333-32s-21.333,14.656-21.333,32s9.771,32,21.333,32S256,220.01,256,202.667z"/>
			<path d="M501.333,202.667c5.896,0,10.667-4.771,10.667-10.667v-85.333C512,83.135,492.865,64,469.333,64H42.667
				C19.135,64,0,83.135,0,106.667V192c0,5.896,4.771,10.667,10.667,10.667C40.073,202.667,64,226.594,64,256
				s-23.927,53.333-53.333,53.333C4.771,309.333,0,314.104,0,320v85.333C0,428.865,19.135,448,42.667,448h426.667
				C492.865,448,512,428.865,512,405.333V320c0-5.896-4.771-10.667-10.667-10.667C471.927,309.333,448,285.406,448,256
				S471.927,202.667,501.333,202.667z M149.333,394.667c0,5.896-4.771,10.667-10.667,10.667c-5.896,0-10.667-4.771-10.667-10.667
				v-21.333c0-5.896,4.771-10.667,10.667-10.667c5.896,0,10.667,4.771,10.667,10.667V394.667z M149.333,309.333
				c0,5.896-4.771,10.667-10.667,10.667c-5.896,0-10.667-4.771-10.667-10.667V288c0-5.896,4.771-10.667,10.667-10.667
				c5.896,0,10.667,4.771,10.667,10.667V309.333z M149.333,224c0,5.896-4.771,10.667-10.667,10.667
				c-5.896,0-10.667-4.771-10.667-10.667v-21.333c0-5.896,4.771-10.667,10.667-10.667c5.896,0,10.667,4.771,10.667,10.667V224z
				 M149.333,138.667c0,5.896-4.771,10.667-10.667,10.667c-5.896,0-10.667-4.771-10.667-10.667v-24
				c0-5.896,4.771-10.667,10.667-10.667c5.896,0,10.667,4.771,10.667,10.667V138.667z M192,202.667
				c0-29.406,19.135-53.333,42.667-53.333s42.667,23.927,42.667,53.333S258.198,256,234.667,256S192,232.073,192,202.667z
				 M223.99,362.667c-2.031,0-4.083-0.583-5.906-1.792c-4.906-3.271-6.229-9.885-2.958-14.792l128-192
				c3.26-4.906,9.854-6.229,14.792-2.958c4.906,3.271,6.229,9.885,2.958,14.792l-128,192
				C230.823,361,227.438,362.667,223.99,362.667z M341.333,362.667c-23.531,0-42.667-23.927-42.667-53.333S317.802,256,341.333,256
				C364.865,256,384,279.927,384,309.333S364.865,362.667,341.333,362.667z"/>
		</g>
	</g>
</g>
<g>
</g>
<g>
</g>
<g>
</g>
<g>
</g>
<g>
</g>
<g>
</g>
<g>
</g>
<g>
</g>
<g>
</g>
<g>
</g>
<g>
</g>
<g>
</g>
<g>
</g>
<g>
</g>
<g>
</g>
</svg>
