<?xml version="1.0" encoding="utf-8"?>
<!-- Generator: Adobe Illustrator 19.0.0, SVG Export Plug-In . SVG Version: 6.00 Build 0)  -->
<svg version="1.1" id="Capa_1" xmlns="http://www.w3.org/2000/svg" xmlns:xlink="http://www.w3.org/1999/xlink" x="0px" y="0px"
	 viewBox="-275 367 60 60" style="enable-background:new -275 367 60 60;" xml:space="preserve">
<g>
	<path d="M-245,367c-16.5,0-30,13.5-30,30s13.5,30,30,30s30-13.5,30-30S-228.5,367-245,367z M-245,425c-15.4,0-28-12.6-28-28
		s12.6-28,28-28s28,12.6,28,28S-229.6,425-245,425z"/>
	<path d="M-244,393v-10.1c0-0.6-0.4-1-1-1s-1,0.4-1,1V393c-1.4,0.4-2.5,1.5-2.9,2.9h-7.1c-0.6,0-1,0.4-1,1s0.4,1,1,1h7.1
		c0.4,1.7,2,3,3.9,3c2.2,0,4-1.8,4-4C-241,395-242.3,393.5-244,393z M-245,398.9c-1.1,0-2-0.9-2-2s0.9-2,2-2s2,0.9,2,2
		S-243.9,398.9-245,398.9z"/>
	<path d="M-245,376.9c0.6,0,1-0.4,1-1v-1c0-0.6-0.4-1-1-1s-1,0.4-1,1v1C-246,376.4-245.6,376.9-245,376.9z"/>
	<path d="M-245,416.9c-0.6,0-1,0.4-1,1v1c0,0.6,0.4,1,1,1s1-0.4,1-1v-1C-244,417.3-244.4,416.9-245,416.9z"/>
	<path d="M-223,395.9h-1c-0.6,0-1,0.4-1,1s0.4,1,1,1h1c0.6,0,1-0.4,1-1S-222.4,395.9-223,395.9z"/>
	<path d="M-266,395.9h-1c-0.6,0-1,0.4-1,1s0.4,1,1,1h1c0.6,0,1-0.4,1-1S-265.4,395.9-266,395.9z"/>
	<path d="M-230.2,380.6l-0.7,0.7c-0.4,0.4-0.4,1,0,1.4c0.2,0.2,0.5,0.3,0.7,0.3s0.5-0.1,0.7-0.3l0.7-0.7c0.4-0.4,0.4-1,0-1.4
		C-229.1,380.2-229.8,380.2-230.2,380.6z"/>
	<path d="M-260.6,411l-0.7,0.7c-0.4,0.4-0.4,1,0,1.4c0.2,0.2,0.5,0.3,0.7,0.3s0.5-0.1,0.7-0.3l0.7-0.7c0.4-0.4,0.4-1,0-1.4
		S-260.2,410.6-260.6,411z"/>
	<path d="M-229.4,411c-0.4-0.4-1-0.4-1.4,0s-0.4,1,0,1.4l0.7,0.7c0.2,0.2,0.5,0.3,0.7,0.3s0.5-0.1,0.7-0.3c0.4-0.4,0.4-1,0-1.4
		L-229.4,411z"/>
	<path d="M-259.8,380.6c-0.4-0.4-1-0.4-1.4,0c-0.4,0.4-0.4,1,0,1.4l0.7,0.7c0.2,0.2,0.5,0.3,0.7,0.3s0.5-0.1,0.7-0.3
		c0.4-0.4,0.4-1,0-1.4L-259.8,380.6z"/>
</g>
</svg>
