<?xml version="1.0" encoding="iso-8859-1"?>
<!-- Generator: Adobe Illustrator 16.0.0, SVG Export Plug-In . SVG Version: 6.00 Build 0)  -->
<!DOCTYPE svg PUBLIC "-//W3C//DTD SVG 1.1//EN" "http://www.w3.org/Graphics/SVG/1.1/DTD/svg11.dtd">
<svg version="1.1" id="Capa_1" xmlns="http://www.w3.org/2000/svg" xmlns:xlink="http://www.w3.org/1999/xlink" x="0px" y="0px"
	 width="41.636px" height="41.637px" viewBox="0 0 41.636 41.637" style="enable-background:new 0 0 41.636 41.637;"
	 xml:space="preserve">
<g>
	<path d="M33.882,12.066l1.064-1.063c0.924,0.505,1.783,0.61,2.219,0.176c0.66-0.661,0.09-2.304-1.271-3.667
		c-1.363-1.363-3.006-1.934-3.666-1.271c-0.436,0.436-0.33,1.295,0.176,2.219l-1.201,1.201c-2.329-1.697-5.081-2.838-8.071-3.23
		V4.034c1.3-0.381,2.177-1.066,2.177-1.856c0-1.202-2.012-2.178-4.49-2.178c-2.479,0-4.49,0.976-4.49,2.178
		c0,0.79,0.877,1.476,2.177,1.856v2.395C9.843,7.568,3.13,14.982,3.13,23.949c0,9.754,7.935,17.688,17.688,17.688
		c9.753,0,17.688-7.936,17.688-17.688C38.506,19.37,36.746,15.208,33.882,12.066z M20.818,40.547c-9.153,0-16.6-7.447-16.6-16.602
		s7.446-16.601,16.6-16.601s16.6,7.446,16.6,16.601S29.97,40.547,20.818,40.547z M20.818,8.162c-8.703,0-15.783,7.08-15.783,15.784
		c0,8.703,7.08,15.785,15.783,15.785c8.703,0,15.783-7.082,15.783-15.785C36.601,15.242,29.521,8.162,20.818,8.162z M20.818,37.552
		c-7.502,0-13.606-6.104-13.606-13.604c0-7.502,6.104-13.606,13.606-13.606c7.501,0,13.605,6.104,13.605,13.606
		C34.423,31.449,28.32,37.552,20.818,37.552z M21.363,12.788h-1.089v-1.904h1.089V12.788z M20.274,35.104h1.088v1.903h-1.088V35.104
		z M33.881,23.402v1.088h-1.905v-1.088H33.881z M9.661,24.49H7.756v-1.088h1.905V24.49z M27.052,12.455l0.936,0.56l-0.979,1.635
		l-0.936-0.56L27.052,12.455z M14.626,33.244l0.935,0.559l-0.978,1.635l-0.935-0.559L14.626,33.244z M30.673,29.205l1.637,0.977
		l-0.561,0.934l-1.635-0.977L30.673,29.205z M9.886,16.776l1.635,0.978l-0.559,0.935L9.327,17.71L9.886,16.776z M30.881,19.096
		l-0.521-0.956l1.674-0.91l0.521,0.957L30.881,19.096z M10.756,28.797l0.52,0.957l-1.674,0.908l-0.52-0.957L10.756,28.797z
		 M26.625,33.488l0.909,1.674l-0.957,0.521l-0.909-1.677L26.625,33.488z M15.012,14.401l-0.91-1.672l0.956-0.521l0.91,1.673
		L15.012,14.401z M21.634,15.782v8.164c0,0.229-0.072,0.451-0.205,0.637l-4.898,6.803c-0.212,0.297-0.546,0.453-0.884,0.453
		c-0.22,0-0.442-0.066-0.635-0.205c-0.488-0.352-0.599-1.031-0.247-1.52l4.693-6.521V15.78c0-0.602,0.487-1.088,1.088-1.088
		C21.148,14.692,21.634,15.181,21.634,15.782z"/>
</g>
<g>
</g>
<g>
</g>
<g>
</g>
<g>
</g>
<g>
</g>
<g>
</g>
<g>
</g>
<g>
</g>
<g>
</g>
<g>
</g>
<g>
</g>
<g>
</g>
<g>
</g>
<g>
</g>
<g>
</g>
</svg>
