<?xml version="1.0" encoding="utf-8"?>
<!-- Generator: Adobe Illustrator 19.0.0, SVG Export Plug-In . SVG Version: 6.00 Build 0)  -->
<svg version="1.1" id="Layer_1" xmlns="http://www.w3.org/2000/svg" xmlns:xlink="http://www.w3.org/1999/xlink" x="0px" y="0px"
	 viewBox="95.3 185.5 239.4 470.8" style="enable-background:new 95.3 185.5 239.4 470.8;" xml:space="preserve">
<style type="text/css">
	.st0{stroke:#000000;stroke-miterlimit:10;}
</style>
<g>
	<path class="st0" d="M108.7,359.1c9.2,18,22.9,33.5,39.7,44.9c19.7,13.3,42.7,20.3,66.6,20.3s46.9-7,66.6-20.3
		c16.8-11.3,30.5-26.9,39.7-44.9c8.5-16.8,12.9-34.9,12.9-53.9c0-9.4-1.1-18.7-3.3-27.7c-7.8-21.4-28.2-35.8-51.1-35.8
		c-14.5,0-28.1,5.6-38.4,15.9c-10.2,10.3-15.9,23.9-15.9,38.4v45.5c0,5.8-4.7,10.6-10.6,10.6c-5.8,0-10.6-4.7-10.6-10.6V296
		c0-14.5-5.6-28.1-15.9-38.4c-10.3-10.2-23.9-15.9-38.4-15.9c-22.8,0-43.3,14.3-51,35.7c-2.2,9-3.3,18.3-3.3,27.8
		c0,18.9,4.3,36.9,12.7,53.6C108.6,358.9,108.7,359,108.7,359.1z M279.9,270.9c16.7,0,30.3,13.6,30.3,30.3
		c0,16.7-13.6,30.3-30.3,30.3c-16.7,0-30.3-13.6-30.3-30.3C249.5,284.5,263.1,270.9,279.9,270.9z M150.1,270.9
		c16.7,0,30.3,13.6,30.3,30.3c0,16.7-13.6,30.3-30.3,30.3s-30.3-13.6-30.3-30.3C119.8,284.5,133.4,270.9,150.1,270.9z"/>
	<path class="st0" d="M131.7,426.8c0-2.8,0-5.7,0.1-8.7c-10.2-7.5-19.3-16.4-27.2-26.3c-1.6,11.5-2.4,23.1-2.4,35
		c0,37.3,7.9,72.8,22.7,102.7c10,20.1,23,36.8,37.6,48.6c-3.2-6-6.3-12.5-9.1-19.7C139.4,523,131.7,476.2,131.7,426.8z"/>
	<path class="st0" d="M150.1,310.5c5.1,0,9.2-4.1,9.2-9.2s-4.1-9.2-9.2-9.2c-5.1,0-9.2,4.1-9.2,9.2S145,310.5,150.1,310.5z"/>
	<path class="st0" d="M180.3,619.1l-9.7,27c-1.2,3.2,0.2,5.7,0.9,6.6c0.7,0.9,2.5,3.1,5.9,3.1h27.1v-36.7H180.3z"/>
	<path class="st0" d="M203.5,242.6c4.5,4.5,8.4,9.5,11.5,14.8c3.2-5.3,7-10.3,11.5-14.8c14.3-14.2,33.2-22.1,53.3-22.1
		c7.8,0,15.4,1.2,22.6,3.5c-21.9-23.7-53.2-38-87.4-38c-34.2,0-65.5,14.4-87.4,38c7.2-2.3,14.8-3.5,22.6-3.5
		C170.3,220.6,189.2,228.4,203.5,242.6z"/>
	<path class="st0" d="M249.7,619.1h-24.2v36.7h27.1c3.4,0,5.3-2.2,5.9-3.1c0.6-0.9,2-3.4,0.9-6.6L249.7,619.1z"/>
	<path class="st0" d="M279.9,310.5c5.1,0,9.2-4.1,9.2-9.2s-4.1-9.2-9.2-9.2c-5.1,0-9.2,4.1-9.2,9.2S274.8,310.5,279.9,310.5z"/>
	<path class="st0" d="M327.8,426.8c0-11.9-0.8-23.6-2.4-35c-7.8,9.9-17,18.8-27.2,26.3c0.1,3,0.1,5.9,0.1,8.7c0,3.2,0,6.5-0.1,9.6
		c-0.1,5.8-4.8,10.3-10.5,10.3c-0.1,0-0.1,0-0.2,0c-5.8-0.1-10.5-4.9-10.3-10.8c0-1.7,0.1-3.4,0.1-5c-19.2,9.5-40.4,14.5-62.1,14.5
		c-21.8,0-42.9-5-62.1-14.5c0.9,97.5,32.8,166.1,61.5,167c0.2,0,0.4,0,0.6,0s0.4,0,0.6,0c23.4-0.7,46.6-43.9,56.5-104.9
		c0.9-5.8,6.3-9.7,12.1-8.7c5.8,0.9,9.7,6.3,8.7,12.1c-5.4,33.3-14.2,61-25.4,81.7c14.6-11.8,27.5-28.5,37.6-48.6
		C319.9,499.6,327.8,464.1,327.8,426.8z M296.8,464c-0.1,1.2-0.2,2.5-0.3,3.7c-0.5,5.5-5.1,9.6-10.5,9.6c-0.3,0-0.6,0-1,0
		c-5.8-0.5-10.1-5.7-9.6-11.5c0.1-1.2,0.2-2.4,0.3-3.5c0.5-5.8,5.6-10.1,11.4-9.7C292.9,453.1,297.2,458.2,296.8,464z"/>
</g>
</svg>
