<?xml version="1.0" encoding="utf-8"?>
<!-- Generator: Adobe Illustrator 19.0.0, SVG Export Plug-In . SVG Version: 6.00 Build 0)  -->
<svg version="1.1" id="Capa_1" xmlns="http://www.w3.org/2000/svg" xmlns:xlink="http://www.w3.org/1999/xlink" x="0px" y="0px"
	 viewBox="-280.7 379 20.3 35" style="enable-background:new -280.7 379 20.3 35;" xml:space="preserve">
<g>
	<path d="M-262.7,379h-15.6c-1.3,0-2.4,1.1-2.4,2.4v30.3c0,1.3,1.1,2.4,2.4,2.4h15.6c1.3,0,2.4-1.1,2.4-2.4v-30.3
		C-260.3,380.1-261.4,379-262.7,379z M-273,380.7h5c0.2,0,0.3,0.1,0.3,0.3c0,0.2-0.1,0.3-0.3,0.3h-5c-0.2,0-0.3-0.1-0.3-0.3
		C-273.3,380.8-273.2,380.7-273,380.7z M-270.5,412.8c-0.7,0-1.2-0.5-1.2-1.2s0.5-1.2,1.2-1.2c0.7,0,1.2,0.5,1.2,1.2
		S-269.8,412.8-270.5,412.8z M-262,409.6h-17v-26.9h17V409.6z"/>
</g>
</svg>
