<?xml version="1.0" encoding="utf-8"?>
<!-- Generator: Adobe Illustrator 19.0.0, SVG Export Plug-In . SVG Version: 6.00 Build 0)  -->
<svg version="1.1" id="Capa_1" xmlns="http://www.w3.org/2000/svg" xmlns:xlink="http://www.w3.org/1999/xlink" x="0px" y="0px"
	 viewBox="-558.1 743.8 52.1 48.3" style="enable-background:new -558.1 743.8 52.1 48.3;" xml:space="preserve">
<path d="M-506.1,758.2c-0.8-8.4-6.7-14.4-14.1-14.4c-4.9,0-9.4,2.7-12,6.9c-2.5-4.3-6.8-6.9-11.7-6.9c-7.4,0-13.3,6.1-14.1,14.4
	c-0.1,0.4-0.3,2.3,0.4,5.5c1.1,4.6,3.6,8.7,7.2,12l18.1,16.4l18.4-16.4c3.6-3.3,6.1-7.4,7.2-12C-505.8,760.6-506,758.6-506.1,758.2z
	 M-507.9,763.9c-1,4.3-3.4,8.3-6.8,11.4l-17.5,15.6l-17.2-15.6c-3.4-3.1-5.8-7.1-6.8-11.4c-0.7-3-0.5-4.8-0.4-5.2
	c0.7-7.9,6.3-13.7,13.3-13.7c4.6,0,8.7,3.4,11.1,7.5c2.4-4,6.7-7.5,11.4-7.5c7,0,12.6,5.7,13.3,13.7
	C-507.4,759.1-507.2,760.9-507.9,763.9z"/>
</svg>
