<?xml version="1.0" encoding="utf-8"?>
<!-- Generator: Adobe Illustrator 19.0.0, SVG Export Plug-In . SVG Version: 6.00 Build 0)  -->
<svg version="1.1" id="Capa_1" xmlns="http://www.w3.org/2000/svg" xmlns:xlink="http://www.w3.org/1999/xlink" x="0px" y="0px"
	 viewBox="-257 348.9 96.1 96.1" style="enable-background:new -257 348.9 96.1 96.1;" xml:space="preserve">
<style type="text/css">
	.st0{fill:#131313;}
</style>
<g>
	<path class="st0" d="M-441.9,697.8h-12.5c-14,0-23.1,9.3-23.1,23.7v10.9H-490c-1.1,0-2,0.9-2,2v15.8c0,1.1,0.9,2,2,2h12.5v39.7
		c0,1.1,0.9,2,2,2h16.4c1.1,0,2-0.9,2-2V752h14.7c1.1,0,2-0.9,2-2v-15.8c0-0.5-0.2-1-0.6-1.4c-0.4-0.4-0.9-0.6-1.4-0.6h-14.7V723
		c0-4.4,1.1-6.7,6.8-6.7h8.4c1.1,0,2-0.9,2-2v-14.7C-440,698.7-440.8,697.8-441.9,697.8z"/>
</g>
</svg>
