<?xml version="1.0" encoding="utf-8"?>
<!-- Generator: Adobe Illustrator 19.0.0, SVG Export Plug-In . SVG Version: 6.00 Build 0)  -->
<svg version="1.1" id="Capa_1" xmlns="http://www.w3.org/2000/svg" xmlns:xlink="http://www.w3.org/1999/xlink" x="0px" y="0px"
	 viewBox="-292 384 26 26" style="enable-background:new -292 384 26 26;" xml:space="preserve">
<style type="text/css">
	.st0{fill:#030104;}
</style>
<g>
	<path class="st0" d="M-272,391c-0.6,0-1-0.4-1-1v-2c0-0.6,0.4-1,1-1h2c0.6,0,1,0.4,1,1v2c0,0.6-0.4,1-1,1H-272z"/>
	<path class="st0" d="M-279,393.2c-0.7,0-1.4,0.2-2,0.6c0.2-0.1,0.4-0.1,0.6-0.1c1.1,0,1.9,0.9,1.9,1.9c0,1.1-0.9,1.9-1.9,1.9
		s-1.9-0.9-1.9-1.9c0-0.2,0-0.4,0.1-0.6c-0.4,0.6-0.6,1.2-0.6,2c0,2.1,1.7,3.8,3.8,3.8c2.1,0,3.8-1.7,3.8-3.8
		S-276.9,393.2-279,393.2z"/>
	<g>
		<path class="st0" d="M-279,391c3.3,0,6,2.7,6,6s-2.7,6-6,6c-3.3,0-6-2.7-6-6S-282.3,391-279,391 M-279,389c-4.4,0-8,3.6-8,8
			s3.6,8,8,8s8-3.6,8-8S-274.6,389-279,389L-279,389z"/>
	</g>
	<path class="st0" d="M-270.9,384h-16.3c-2.7,0-4.9,2.2-4.9,4.9v16.3c0,2.7,2.2,4.9,4.9,4.9h16.3c2.7,0,4.9-2.2,4.9-4.9v-16.3
		C-266,386.2-268.2,384-270.9,384z M-268,393h-6.5c1,1.1,1.5,2.5,1.5,4c0,3.3-2.7,6-6,6c-3.3,0-6-2.7-6-6c0-1.5,0.6-2.9,1.5-4h-6.5
		v-4.1c0-1.6,1.3-2.9,2.9-2.9h16.3c1.6,0,2.9,1.3,2.9,2.9V393z"/>
</g>
</svg>
