<?xml version="1.0" encoding="utf-8"?>
<!-- Generator: Adobe Illustrator 19.0.0, SVG Export Plug-In . SVG Version: 6.00 Build 0)  -->
<svg version="1.1" id="Layer_1" xmlns="http://www.w3.org/2000/svg" xmlns:xlink="http://www.w3.org/1999/xlink" x="0px" y="0px"
	 viewBox="0 0 183.7 289.7" style="enable-background:new 0 0 183.7 289.7;" xml:space="preserve">
<style type="text/css">
	.st0{fill:#757575;}
	.st1{fill-rule:evenodd;clip-rule:evenodd;}
	.st2{fill:url(#SVGID_1_);}
	.st3{fill:url(#SVGID_2_);}
	.st4{fill:url(#SVGID_3_);}
	.st5{fill:url(#SVGID_4_);}
	.st6{fill:url(#SVGID_5_);}
	.st7{fill:url(#SVGID_6_);}
	.st8{fill:#FFFFFF;}
	.st9{clip-path:url(#SVGID_8_);fill:#757575;}
	.st10{fill:#000100;}
</style>
<path class="st0" d="M27.7,211.2c0,0-5.6,1-12.5-7.7c0,0-46.8-56.2,23.8-107.2c0,0-34.8-11.1-10.4-56.1c0,0,38.1-70.2,108.4-25.1
	c0,0,54.3,57.1,6.3,76.6c0,0,65.3,43.9,29.8,99.7c0,0-16.4,19.8-17.1,13.3L27.7,211.2z"/>
<path class="st1" d="M94.8,83c3.9,3.3,4.6,7.7,1.7,12c-1.5,2.2-3.4,4.1-5,6.3c-1.5,2-2.7,4.2-3.9,6c-3-4-5.8-7.9-8.8-11.6
	c-3.3-4.1-3.2-8.4,0.4-12"/>
<linearGradient id="SVGID_1_" gradientUnits="userSpaceOnUse" x1="29.6437" y1="46.6043" x2="149.7999" y2="46.6043">
	<stop  offset="0" style="stop-color:#FFEE25"/>
	<stop  offset="1.783161e-002" style="stop-color:#FFE920"/>
	<stop  offset="0.102" style="stop-color:#FED60E"/>
	<stop  offset="0.1886" style="stop-color:#FDCB04"/>
	<stop  offset="0.2809" style="stop-color:#FDC700"/>
	<stop  offset="0.6685" style="stop-color:#F08F34"/>
	<stop  offset="0.8876" style="stop-color:#E86031"/>
	<stop  offset="1" style="stop-color:#E2312D"/>
</linearGradient>
<path class="st2" d="M75.6,50.3c3.2,4.8,3.4,11.1,2.7,16.8c-0.6,5.5-1.7,11.7,1.8,16c3.1,3.8,9.1,4.3,13.5,2.2
	c4.4-2.1,7.6-6.3,9.8-10.7c2.2-4.4,3.8-9.1,6-13.5c4-7.7,5.5-16.1,13.2-20.2c18.6-9.9,26.8-23.5,27.2-31.1
	c-19.9,9.5-37,15.9-59.1,16.4c-22.1,0.5-43.3-6.3-61.1-19.5c2.9,13.4,12.3,25.2,24.6,31C61.8,41.4,71,43.3,75.6,50.3"/>
<g>
	<g>
		<linearGradient id="SVGID_2_" gradientUnits="userSpaceOnUse" x1="12.6632" y1="143.5299" x2="91.0617" y2="143.5299">
			<stop  offset="5.319150e-002" style="stop-color:#EA567B"/>
			<stop  offset="0.3777" style="stop-color:#E63256"/>
			<stop  offset="0.8138" style="stop-color:#E63256"/>
			<stop  offset="1" style="stop-color:#B91825"/>
		</linearGradient>
		<path class="st3" d="M21.3,200.6c-0.8-14.9,2.5-29.5,10.9-42.8c9.4-14.9,26.4-26.9,43.9-29.3c4.6-1.9,9.7-3,14.9-3V86.5
			c-43.2,0-78.4,35.2-78.4,78.4C12.7,177.7,15.8,189.9,21.3,200.6z"/>
	</g>
	<g>
		<linearGradient id="SVGID_3_" gradientUnits="userSpaceOnUse" x1="91.0617" y1="209.4469" x2="169.4601" y2="209.4469">
			<stop  offset="0" style="stop-color:#307731"/>
			<stop  offset="0.1809" style="stop-color:#5FA931"/>
			<stop  offset="0.6223" style="stop-color:#5FA931"/>
			<stop  offset="1" style="stop-color:#8FBF40"/>
		</linearGradient>
		<path class="st4" d="M160.9,129.2c0.8,14.9-2.5,29.5-10.9,42.8c-9.4,14.9-26.4,26.9-43.9,29.3c-4.6,1.9-9.7,3-14.9,3v85.5
			c0,0,78.4-81.6,78.4-124.8C169.5,152,166.4,139.9,160.9,129.2z"/>
	</g>
	<g>
		<linearGradient id="SVGID_4_" gradientUnits="userSpaceOnUse" x1="21.7481" y1="177.5877" x2="122.126" y2="228.7328">
			<stop  offset="0" style="stop-color:#C07726"/>
			<stop  offset="2.179027e-002" style="stop-color:#CB8027"/>
			<stop  offset="9.284326e-002" style="stop-color:#E9992A"/>
			<stop  offset="0.133" style="stop-color:#F4A32B"/>
			<stop  offset="0.6223" style="stop-color:#F4A32B"/>
			<stop  offset="0.8032" style="stop-color:#FCC953"/>
			<stop  offset="1" style="stop-color:#FCC953"/>
		</linearGradient>
		<path class="st5" d="M51.7,164.9c0-16.4,10.1-30.5,24.4-36.4c-17.5,2.4-34.6,14.4-43.9,29.3c-8.4,13.2-11.7,27.9-10.9,42.8
			c13,25.3,69.8,89.1,69.8,89.1v-85.5C69.4,204.2,51.7,186.6,51.7,164.9z"/>
	</g>
	<g>
		<linearGradient id="SVGID_5_" gradientUnits="userSpaceOnUse" x1="70.3294" y1="116.6575" x2="150.7066" y2="170.8727">
			<stop  offset="0" style="stop-color:#FDC920"/>
			<stop  offset="0.3777" style="stop-color:#F5A407"/>
			<stop  offset="0.8138" style="stop-color:#F5A40D"/>
			<stop  offset="1" style="stop-color:#E07725"/>
		</linearGradient>
		<path class="st6" d="M130.4,164.3c0,16.4-10.1,31.1-24.4,37c17.5-2.4,34.6-14.2,44.1-29.6c8.3-13.3,11.5-27.6,10.7-42.5
			c-13-25.3-39.4-43.3-69.8-43.3v39.6C112.8,125.5,130.4,142.6,130.4,164.3z"/>
	</g>
	<g>
		<linearGradient id="SVGID_6_" gradientUnits="userSpaceOnUse" x1="35.9389" y1="150.1114" x2="124.5536" y2="263.5331">
			<stop  offset="0" style="stop-color:#FDC920"/>
			<stop  offset="0.3777" style="stop-color:#F5A407"/>
			<stop  offset="0.8138" style="stop-color:#F5A40D"/>
			<stop  offset="1" style="stop-color:#E07725"/>
		</linearGradient>
		<path class="st7" d="M51.7,164.9c0-16.4,10.1-30.5,24.4-36.4c-17.5,2.4-34.6,14.4-43.9,29.3c-8.4,13.2-11.7,27.9-10.9,42.8
			c13,25.3,69.8,89.1,69.8,89.1v-85.5C69.4,204.2,51.7,186.6,51.7,164.9z"/>
	</g>
</g>
<path d="M89.3,82c5.1-0.5,10.9,0.9,14.2,3.9c-5,3.4-8.5,7.8-10.9,13.3c-3.7-6.7-7-8.6-11.8-12.6C82.4,83.7,85.9,82.3,89.3,82"/>
<path class="st8" d="M90.3,71.1c0-15.2-12.3-27.5-27.5-27.5S35.3,55.9,35.3,71.1c0,15.2,12.3,27.5,27.5,27.5S90.3,86.2,90.3,71.1"/>
<path class="st8" d="M149.7,71.3c0-15.2-12.3-27.5-27.5-27.5c-15.2,0-27.5,12.3-27.5,27.5s12.3,27.5,27.5,27.5
	C137.4,98.8,149.7,86.5,149.7,71.3"/>
<g>
	<defs>
		<path id="SVGID_7_" d="M55.6,37c7.5,3.6,16.7,5.5,21.3,12.5c3.2,4.8,3.4,11.1,2.7,16.8c-0.6,5.5-1.7,11.7,1.8,16
			c3.1,3.8,9.1,4.3,13.5,2.2c4.4-2.1,7.6-6.3,9.8-10.7c2.2-4.4,3.8-9.1,6-13.5c4-7.7,5.5-16.1,13.2-20.2
			c18.6-9.9,26.8-23.5,27.2-31.1c-19.9,9.5-37,15.9-59.1,16.4C70,26,48.7,19.1,31,6C33.9,19.4,43.3,31.2,55.6,37"/>
	</defs>
	<clipPath id="SVGID_8_">
		<use xlink:href="#SVGID_7_"  style="overflow:visible;"/>
	</clipPath>
	<path class="st9" d="M90.1,49.6c2.1-8.5,6.4-17.4,11.2-24.1c0.8-1.1,1.6-2.2,2.4-3.2c-4.9-0.6-32.4-4.3-28.1,0.9
		C81.6,30.2,88.7,42,90.1,49.6"/>
</g>
<ellipse class="st8" cx="91.3" cy="164.9" rx="39.6" ry="39.3"/>
<circle class="st10" cx="68.1" cy="68.6" r="11.5"/>
<circle class="st10" cx="118.9" cy="66.6" r="11.5"/>
<circle class="st8" cx="117.7" cy="64.2" r="3.6"/>
<circle class="st8" cx="69.7" cy="66.2" r="3.6"/>
<path class="st0" d="M94.7,75.9l47.1-23.8c0,0-18.9-25.8-43,0C98.9,52.1,92.5,60.9,94.7,75.9z"/>
<path class="st0" d="M34.9,52.4l55.6,22.8c0,0,5.5-34.7-34.5-36.4C56,38.8,44.5,39.9,34.9,52.4z"/>
</svg>
