<?xml version="1.0" encoding="utf-8"?>
<!-- Generator: Adobe Illustrator 19.0.0, SVG Export Plug-In . SVG Version: 6.00 Build 0)  -->
<svg version="1.1" id="Layer_1" xmlns="http://www.w3.org/2000/svg" xmlns:xlink="http://www.w3.org/1999/xlink" x="0px" y="0px"
	 viewBox="0 0 189.3 298.6" style="enable-background:new 0 0 189.3 298.6;" xml:space="preserve">
<style type="text/css">
	.st0{fill:#757575;}
	.st1{fill-rule:evenodd;clip-rule:evenodd;}
	.st2{fill:url(#SVGID_1_);}
	.st3{fill:url(#SVGID_2_);}
	.st4{fill:url(#SVGID_3_);}
	.st5{fill:url(#SVGID_4_);}
	.st6{fill:url(#SVGID_5_);}
	.st7{fill:url(#SVGID_6_);}
	.st8{fill:#FFFFFF;}
	.st9{clip-path:url(#SVGID_8_);fill:#757575;}
	.st10{fill:#1D1D1B;}
	.st11{fill:#13120D;}
	.st12{fill:#777270;}
</style>
<g>
	<path class="st0" d="M28.5,217.7c0,0-5.8,1.1-12.9-7.9c0,0-48.3-57.9,24.5-110.5c0,0-35.8-11.5-10.8-57.8c0,0,39.2-72.3,111.7-25.9
		c0,0,55.9,58.8,6.5,79c0,0,67.3,45.2,30.7,102.8c0,0-16.9,20.4-17.6,13.7L28.5,217.7z"/>
	<path class="st1" d="M97.7,85.5c4,3.4,4.7,8,1.7,12.3c-1.6,2.2-3.5,4.2-5.1,6.5c-1.5,2.1-2.8,4.3-4,6.2c-3.1-4.1-6-8.1-9.1-12
		c-3.4-4.3-3.3-8.7,0.4-12.4"/>
	<linearGradient id="SVGID_1_" gradientUnits="userSpaceOnUse" x1="30.5506" y1="48.03" x2="154.3826" y2="48.03">
		<stop  offset="0" style="stop-color:#FFEE25"/>
		<stop  offset="1.783161e-002" style="stop-color:#FFE920"/>
		<stop  offset="0.102" style="stop-color:#FED60E"/>
		<stop  offset="0.1886" style="stop-color:#FDCB04"/>
		<stop  offset="0.2809" style="stop-color:#FDC700"/>
		<stop  offset="0.6685" style="stop-color:#F08F34"/>
		<stop  offset="0.8876" style="stop-color:#E86031"/>
		<stop  offset="1" style="stop-color:#E2312D"/>
	</linearGradient>
	<path class="st2" d="M77.9,51.8c3.3,5,3.5,11.4,2.8,17.3c-0.7,5.7-1.8,12.1,1.8,16.5c3.2,3.9,9.4,4.4,14,2.3
		c4.6-2.2,7.8-6.5,10.1-11c2.3-4.5,3.9-9.4,6.2-13.9c4.2-7.9,5.7-16.6,13.6-20.9c19.2-10.2,27.6-24.2,28-32.1
		c-20.6,9.8-38.1,16.4-60.9,16.9c-22.7,0.5-44.6-6.5-62.9-20.1c3,13.8,12.7,25.9,25.4,32C63.7,42.6,73.1,44.6,77.9,51.8"/>
	<g>
		<g>
			<linearGradient id="SVGID_2_" gradientUnits="userSpaceOnUse" x1="13.0506" y1="147.9209" x2="93.8475" y2="147.9209">
				<stop  offset="5.319150e-002" style="stop-color:#E54D75"/>
				<stop  offset="0.3777" style="stop-color:#E0274D"/>
				<stop  offset="0.8138" style="stop-color:#E0274D"/>
				<stop  offset="1" style="stop-color:#B8191A"/>
			</linearGradient>
			<path class="st3" d="M21.9,206.7c-0.8-15.3,2.6-30.4,11.3-44.1c9.7-15.4,27.2-27.7,45.3-30.2c4.8-2,9.9-3,15.4-3V89.1
				c-44.6,0-80.8,36.2-80.8,80.8C13.1,183.2,16.3,195.7,21.9,206.7z"/>
		</g>
		<g>
			<linearGradient id="SVGID_3_" gradientUnits="userSpaceOnUse" x1="93.8475" y1="215.8544" x2="174.6443" y2="215.8544">
				<stop  offset="0" style="stop-color:#307531"/>
				<stop  offset="0.1809" style="stop-color:#5FA331"/>
				<stop  offset="0.6223" style="stop-color:#5FA331"/>
				<stop  offset="1" style="stop-color:#95BB26"/>
			</linearGradient>
			<path class="st4" d="M165.8,133.1c0.8,15.3-2.6,30.4-11.3,44.1c-9.7,15.4-27.2,27.7-45.3,30.2c-4.8,2-9.9,3-15.4,3v88.1
				c0,0,80.8-84.1,80.8-128.6C174.6,156.7,171.4,144.2,165.8,133.1z"/>
		</g>
		<g>
			<linearGradient id="SVGID_4_" gradientUnits="userSpaceOnUse" x1="22.4134" y1="183.0205" x2="125.8621" y2="235.7302">
				<stop  offset="0" style="stop-color:#C37715"/>
				<stop  offset="1.457563e-002" style="stop-color:#CA7D15"/>
				<stop  offset="9.024505e-002" style="stop-color:#E89913"/>
				<stop  offset="0.133" style="stop-color:#F3A412"/>
				<stop  offset="0.6223" style="stop-color:#F3A412"/>
				<stop  offset="0.8032" style="stop-color:#FCCA4A"/>
				<stop  offset="1" style="stop-color:#FCCA4A"/>
			</linearGradient>
			<path class="st5" d="M53.3,169.9c0-16.9,10.4-31.4,25.1-37.5c-18,2.5-35.6,14.8-45.3,30.2c-8.7,13.6-12.1,28.7-11.3,44.1
				c13.4,26.1,71.9,91.9,71.9,91.9v-88.1C71.5,210.5,53.3,192.3,53.3,169.9z"/>
		</g>
		<g>
			<linearGradient id="SVGID_5_" gradientUnits="userSpaceOnUse" x1="72.4809" y1="120.2263" x2="155.3171" y2="176.1">
				<stop  offset="0" style="stop-color:#FDCA00"/>
				<stop  offset="0.3777" style="stop-color:#F2A400"/>
				<stop  offset="0.8138" style="stop-color:#F3A400"/>
				<stop  offset="1" style="stop-color:#DE720F"/>
			</linearGradient>
			<path class="st6" d="M134.4,169.3c0,16.9-10.4,32-25.1,38.1c18-2.5,35.6-14.6,45.5-30.5c8.5-13.7,11.9-28.4,11.1-43.8
				c-13.4-26.1-40.6-44.6-71.9-44.6v40.8C116.2,129.4,134.4,147,134.4,169.3z"/>
		</g>
		<g>
			<linearGradient id="SVGID_6_" gradientUnits="userSpaceOnUse" x1="37.0383" y1="154.7037" x2="128.364" y2="271.5952">
				<stop  offset="0" style="stop-color:#FDCA00"/>
				<stop  offset="0.3777" style="stop-color:#F2A400"/>
				<stop  offset="0.8138" style="stop-color:#F3A400"/>
				<stop  offset="1" style="stop-color:#DE720F"/>
			</linearGradient>
			<path class="st7" d="M53.3,169.9c0-16.9,10.4-31.4,25.1-37.5c-18,2.5-35.6,14.8-45.3,30.2c-8.7,13.6-12.1,28.7-11.3,44.1
				c13.4,26.1,71.9,91.9,71.9,91.9v-88.1C71.5,210.5,53.3,192.3,53.3,169.9z"/>
		</g>
	</g>
	<path d="M92,84.5c5.2-0.5,11.2,1,14.7,4c-5.1,3.5-8.8,8-11.2,13.8c-3.8-6.9-7.3-8.9-12.1-13C84.9,86.2,88.6,84.9,92,84.5"/>
	<path class="st8" d="M93.1,73.2c0-15.6-12.7-28.3-28.3-28.3S36.4,57.6,36.4,73.2c0,15.6,12.7,28.3,28.3,28.3S93.1,88.9,93.1,73.2"
		/>
	<path class="st8" d="M154.2,73.5c0-15.6-12.7-28.3-28.3-28.3c-15.6,0-28.3,12.7-28.3,28.3s12.7,28.3,28.3,28.3
		C141.6,101.8,154.2,89.2,154.2,73.5"/>
	<g>
		<defs>
			<path id="SVGID_7_" d="M57.3,38.2c7.8,3.7,17.2,5.7,21.9,12.9c3.3,5,3.5,11.4,2.8,17.3c-0.7,5.7-1.8,12.1,1.8,16.5
				c3.2,3.9,9.4,4.4,14,2.3c4.6-2.2,7.8-6.5,10.1-11c2.3-4.5,3.9-9.4,6.2-13.9c4.2-7.9,5.7-16.6,13.6-20.9
				c19.2-10.2,27.6-24.2,28-32.1c-20.6,9.8-38.1,16.4-60.9,16.9c-22.8,0.5-44.6-6.5-62.9-20.1C34.9,20,44.6,32.1,57.3,38.2"/>
		</defs>
		<clipPath id="SVGID_8_">
			<use xlink:href="#SVGID_7_"  style="overflow:visible;"/>
		</clipPath>
		<path class="st9" d="M92.8,51.1c2.1-8.8,6.6-17.9,11.5-24.9c0.8-1.2,1.7-2.3,2.5-3.3c-5-0.6-33.4-4.4-28.9,0.9
			C84.1,31.1,91.4,43.3,92.8,51.1"/>
	</g>
	<ellipse class="st8" cx="94.1" cy="169.9" rx="40.8" ry="40.5"/>
	<circle class="st10" cx="126.6" cy="78" r="17.8"/>
	<circle class="st11" cx="64.2" cy="76.6" r="17.8"/>
	<path class="st8" d="M66.3,75.9c0,3.3-2.7,6.1-6,6.1c-3.3,0-6-2.7-6-6.1c0-3.3,2.7-6,6-6C63.6,69.8,66.3,72.6,66.3,75.9z"/>
	<circle class="st12" cx="71.8" cy="84.5" r="3"/>
	<circle class="st12" cx="117.9" cy="84.5" r="3"/>
	<path class="st8" d="M137,75.7c0,3.3-2.7,6.1-6,6.1c-3.3,0-6-2.7-6-6.1c0-3.3,2.7-6,6-6C134.3,69.7,137,72.4,137,75.7z"/>
	<path class="st0" d="M91.5,57.8L37.1,80.2c0,0-11.9-34.9,29-36.2C66.1,44,79.3,45.1,91.5,57.8z"/>
	<path class="st0" d="M99.6,57.8l54.3,22.4c0,0,11.9-34.9-29-36.2C124.9,44,111.8,45.1,99.6,57.8z"/>
</g>
</svg>
