<?xml version="1.0" encoding="utf-8"?>
<!-- Generator: Adobe Illustrator 19.0.0, SVG Export Plug-In . SVG Version: 6.00 Build 0)  -->
<svg version="1.1" id="Layer_1" xmlns="http://www.w3.org/2000/svg" xmlns:xlink="http://www.w3.org/1999/xlink" x="0px" y="0px"
	 viewBox="0 0 203 330" style="enable-background:new 0 0 203 330;" xml:space="preserve">
<style type="text/css">
	.st0{fill:#757575;}
	.st1{fill-rule:evenodd;clip-rule:evenodd;}
	.st2{fill:url(#SVGID_1_);}
	.st3{fill:url(#SVGID_2_);}
	.st4{fill:url(#SVGID_3_);}
	.st5{fill:url(#SVGID_4_);}
	.st6{fill:url(#SVGID_5_);}
	.st7{fill:#FFFFFF;}
	.st8{clip-path:url(#SVGID_7_);fill:#757575;}
	.st9{fill:#000100;}
	.st10{fill:url(#SVGID_8_);}
	.st11{fill-rule:evenodd;clip-rule:evenodd;fill:#F8F8F8;}
</style>
<path class="st0" d="M37.3,228.6c0,0-5.6,1-12.5-7.7c0,0-46.8-56.2,23.8-107.2c0,0-34.8-11.1-10.4-56.1c0,0,38.1-70.2,108.4-25.1
	c0,0,54.3,57.1,6.3,76.6c0,0,65.3,43.9,29.8,99.7c0,0-16.4,19.8-17.1,13.3L37.3,228.6z"/>
<path class="st1" d="M104.4,100.4c3.9,3.3,4.6,7.7,1.7,12c-1.5,2.2-3.4,4.1-5,6.3c-1.5,2-2.7,4.2-3.9,6c-3-4-5.8-7.9-8.8-11.6
	c-3.3-4.1-3.2-8.4,0.4-12"/>
<linearGradient id="SVGID_1_" gradientUnits="userSpaceOnUse" x1="39.2866" y1="63.9699" x2="159.4453" y2="63.9699">
	<stop  offset="5.319150e-002" style="stop-color:#EA567B"/>
	<stop  offset="0.3777" style="stop-color:#E63256"/>
	<stop  offset="0.8138" style="stop-color:#E63256"/>
	<stop  offset="1" style="stop-color:#B91825"/>
</linearGradient>
<path class="st2" d="M85.2,67.6c3.2,4.8,3.4,11.1,2.7,16.8c-0.6,5.5-1.7,11.7,1.8,16c3.1,3.8,9.1,4.3,13.5,2.2
	c4.4-2.1,7.6-6.3,9.8-10.7c2.2-4.4,3.8-9.1,6-13.5c4-7.7,5.5-16.1,13.2-20.2c18.6-9.9,26.8-23.5,27.2-31.1
	c-19.9,9.5-37,15.9-59.1,16.4s-43.3-6.3-61.1-19.5c2.9,13.4,12.3,25.2,24.6,31C71.5,58.7,80.6,60.7,85.2,67.6"/>
<g>
	<g>
		<linearGradient id="SVGID_2_" gradientUnits="userSpaceOnUse" x1="22.3062" y1="160.8955" x2="100.707" y2="160.8955">
			<stop  offset="5.319150e-002" style="stop-color:#EA567B"/>
			<stop  offset="0.3777" style="stop-color:#E63256"/>
			<stop  offset="0.8138" style="stop-color:#E63256"/>
			<stop  offset="1" style="stop-color:#B91825"/>
		</linearGradient>
		<path class="st3" d="M30.9,217.9c-0.8-14.9,2.5-29.5,10.9-42.8c9.4-14.9,26.4-26.9,43.9-29.3c4.6-1.9,9.7-3,14.9-3v-39.1
			c-43.2,0-78.4,35.2-78.4,78.4C22.3,195.1,25.4,207.2,30.9,217.9z"/>
	</g>
	<g>
		<linearGradient id="SVGID_3_" gradientUnits="userSpaceOnUse" x1="31.3913" y1="194.9527" x2="131.7711" y2="246.0988">
			<stop  offset="0" style="stop-color:#C07726"/>
			<stop  offset="2.179027e-002" style="stop-color:#CB8027"/>
			<stop  offset="9.284326e-002" style="stop-color:#E9992A"/>
			<stop  offset="0.133" style="stop-color:#F4A32B"/>
			<stop  offset="0.6223" style="stop-color:#F4A32B"/>
			<stop  offset="0.8032" style="stop-color:#FCC953"/>
			<stop  offset="1" style="stop-color:#FCC953"/>
		</linearGradient>
		<path class="st4" d="M61.4,182.3c0-16.4,10.1-30.5,24.4-36.4c-17.5,2.4-34.6,14.4-43.9,29.3c-8.4,13.2-11.7,27.9-10.9,42.8
			c13,25.3,69.8,89.1,69.8,89.1v-85.5C79,221.6,61.4,203.9,61.4,182.3z"/>
	</g>
	<g>
		<linearGradient id="SVGID_4_" gradientUnits="userSpaceOnUse" x1="79.9747" y1="134.023" x2="160.352" y2="188.2382">
			<stop  offset="0" style="stop-color:#FDC920"/>
			<stop  offset="0.3777" style="stop-color:#F5A407"/>
			<stop  offset="0.8138" style="stop-color:#F5A40D"/>
			<stop  offset="1" style="stop-color:#E07725"/>
		</linearGradient>
		<path class="st5" d="M140,181.7c0,16.4-10.1,31.1-24.4,37c17.5-2.4,34.6-14.2,44.1-29.6c8.3-13.3,11.5-27.6,10.7-42.5
			c-13-25.3-39.4-43.3-69.8-43.3v39.6C122.4,142.9,140,160,140,181.7z"/>
	</g>
	<g>
		<linearGradient id="SVGID_5_" gradientUnits="userSpaceOnUse" x1="45.5825" y1="167.4772" x2="134.1978" y2="280.8996">
			<stop  offset="0" style="stop-color:#FDC920"/>
			<stop  offset="0.3777" style="stop-color:#F5A407"/>
			<stop  offset="0.8138" style="stop-color:#F5A40D"/>
			<stop  offset="1" style="stop-color:#E07725"/>
		</linearGradient>
		<path class="st6" d="M61.4,182.3c0-16.4,10.1-30.5,24.4-36.4c-17.5,2.4-34.6,14.4-43.9,29.3c-8.4,13.2-11.7,27.9-10.9,42.8
			c13,25.3,69.8,89.1,69.8,89.1v-85.5C79,221.6,61.4,203.9,61.4,182.3z"/>
	</g>
</g>
<path d="M98.9,99.4c5.1-0.5,10.9,0.9,14.2,3.9c-5,3.4-8.5,7.8-10.9,13.3c-3.7-6.7-7-8.6-11.8-12.6C92,101,95.6,99.7,98.9,99.4"/>
<path class="st7" d="M99.9,88.4c0-15.2-12.3-27.5-27.5-27.5C57.3,60.9,45,73.2,45,88.4c0,15.2,12.3,27.5,27.5,27.5
	C87.6,115.9,99.9,103.6,99.9,88.4"/>
<path class="st7" d="M159.3,88.7c0-15.2-12.3-27.5-27.5-27.5c-15.2,0-27.5,12.3-27.5,27.5s12.3,27.5,27.5,27.5
	C147,116.2,159.3,103.9,159.3,88.7"/>
<g>
	<defs>
		<path id="SVGID_6_" d="M65.3,54.4C72.8,58,82,59.9,86.6,66.9c3.2,4.8,3.4,11.1,2.7,16.8c-0.6,5.5-1.7,11.7,1.8,16
			c3.1,3.8,9.1,4.3,13.5,2.2c4.4-2.1,7.6-6.3,9.8-10.7c2.2-4.4,3.8-9.1,6-13.5c4-7.7,5.5-16.1,13.2-20.2
			c18.6-9.9,26.8-23.5,27.2-31.1c-19.9,9.5-37,15.9-59.1,16.4c-22.1,0.5-43.3-6.3-61.1-19.5C43.5,36.7,52.9,48.5,65.3,54.4"/>
	</defs>
	<clipPath id="SVGID_7_">
		<use xlink:href="#SVGID_6_"  style="overflow:visible;"/>
	</clipPath>
	<path class="st8" d="M99.7,66.9c2.4-9.9,8-20.4,13.6-27.4c-4.9-0.6-32.4-4.3-28.1,0.9C91.2,47.5,98.3,59.4,99.7,66.9"/>
</g>
<ellipse class="st7" cx="101" cy="182.2" rx="39.6" ry="39.3"/>
<circle class="st7" cx="127.4" cy="81.5" r="3.6"/>
<ellipse class="st9" cx="132.5" cy="88.7" rx="20.1" ry="19.1"/>
<ellipse class="st9" cx="72.5" cy="88.7" rx="20.1" ry="19.1"/>
<g>
	<linearGradient id="SVGID_8_" gradientUnits="userSpaceOnUse" x1="100.707" y1="226.8125" x2="179.1055" y2="226.8125">
		<stop  offset="0" style="stop-color:#307731"/>
		<stop  offset="0.1809" style="stop-color:#5FA931"/>
		<stop  offset="0.6223" style="stop-color:#5FA931"/>
		<stop  offset="1" style="stop-color:#8FBF40"/>
	</linearGradient>
	<path class="st10" d="M170.5,146.6c0.8,14.9-2.5,29.5-10.9,42.8c-9.4,14.9-26.4,26.9-43.9,29.3c-4.6,1.9-9.7,3-14.9,3v85.5
		c0,0,78.4-81.6,78.4-124.8C179.1,169.4,176,157.3,170.5,146.6z"/>
</g>
<path class="st11" d="M132.5,100.8c-0.4-0.4-0.9-0.7-1.3-1.1c-1.6-1.3-3.1-2.7-4.5-4.2c-1.2-1.2-2.4-2.5-3.4-4
	c-0.5-0.8-1-1.6-1.1-2.5c-0.6-3,1.1-6.1,4-7c2.1-0.7,4.1-0.1,5.7,1.4c0.1,0.1,0.2,0.3,0.4,0.4c0.1,0.1,0.2,0.3,0.3,0.4
	c0-0.1,0.1-0.1,0.1-0.2c1-1.3,2.3-2,4-2.2c2.9-0.4,5.1,1.6,5.9,3.7c0.8,2,0.6,3.8-0.5,5.6c-0.8,1.3-1.8,2.4-2.8,3.5
	c-2,2.2-4.3,4.1-6.6,6C132.6,100.7,132.5,100.7,132.5,100.8z"/>
<path class="st11" d="M72.4,100.8c-0.4-0.4-0.9-0.7-1.3-1.1c-1.6-1.3-3.1-2.7-4.5-4.2c-1.2-1.2-2.4-2.5-3.4-4
	c-0.5-0.8-1-1.6-1.1-2.5c-0.6-3,1.1-6.1,4-7c2.1-0.7,4.1-0.1,5.7,1.4c0.1,0.1,0.2,0.3,0.4,0.4c0.1,0.1,0.2,0.3,0.3,0.4
	c0-0.1,0.1-0.1,0.1-0.2c1-1.3,2.3-2,4-2.2c2.9-0.4,5.1,1.6,5.9,3.7c0.8,2,0.6,3.8-0.5,5.6c-0.8,1.3-1.8,2.4-2.8,3.5
	c-2,2.2-4.3,4.1-6.6,6C72.5,100.7,72.5,100.7,72.4,100.8z"/>
</svg>
