<?xml version="1.0" encoding="utf-8"?>
<!-- Generator: Adobe Illustrator 19.0.0, SVG Export Plug-In . SVG Version: 6.00 Build 0)  -->
<svg version="1.1" id="Layer_1" xmlns="http://www.w3.org/2000/svg" xmlns:xlink="http://www.w3.org/1999/xlink" x="0px" y="0px"
	 viewBox="0 0 203 330" style="enable-background:new 0 0 203 330;" xml:space="preserve">
<style type="text/css">
	.st0{fill:#757575;}
	.st1{fill-rule:evenodd;clip-rule:evenodd;}
	.st2{fill:url(#SVGID_1_);}
	.st3{fill:url(#SVGID_2_);}
	.st4{fill:url(#SVGID_3_);}
	.st5{fill:url(#SVGID_4_);}
	.st6{fill:url(#SVGID_5_);}
	.st7{fill:url(#SVGID_6_);}
	.st8{clip-path:url(#SVGID_8_);fill:#757575;}
	.st9{fill:#FFFFFF;}
	.st10{fill:#020202;}
	.st11{fill:#1D1E1C;}
</style>
<path class="st0" d="M36.3,230.4c0,0-5.6,1-12.5-7.7c0,0-46.8-56.2,23.8-107.2c0,0-34.8-11.1-10.4-56.1c0,0,38.1-70.2,108.4-25.1
	c0,0,54.3,57.1,6.3,76.6c0,0,65.3,43.9,29.8,99.7c0,0-16.4,19.8-17.1,13.3L36.3,230.4z"/>
<path class="st1" d="M103.4,102.1c3.9,3.3,4.6,7.7,1.7,12c-1.5,2.2-3.4,4.1-5,6.3c-1.5,2-2.7,4.2-3.9,6c-3-4-5.8-7.9-8.8-11.6
	c-3.3-4.1-3.2-8.4,0.4-12"/>
<linearGradient id="SVGID_1_" gradientUnits="userSpaceOnUse" x1="38.2871" y1="65.755" x2="158.4434" y2="65.755">
	<stop  offset="5.319150e-002" style="stop-color:#FF547A"/>
	<stop  offset="0.3777" style="stop-color:#ED2E54"/>
	<stop  offset="0.8138" style="stop-color:#ED2E54"/>
	<stop  offset="1" style="stop-color:#BA0021"/>
</linearGradient>
<path class="st2" d="M84.2,69.4c3.2,4.8,3.4,11.1,2.7,16.8c-0.6,5.5-1.7,11.7,1.8,16c3.1,3.8,9.1,4.3,13.5,2.2
	c4.4-2.1,7.6-6.3,9.8-10.7c2.2-4.4,3.8-9.1,6-13.5c4-7.7,5.5-16.1,13.2-20.2c18.6-9.9,26.8-23.5,27.2-31.1
	c-19.9,9.5-37,15.9-59.1,16.4C77.3,45.9,56.1,39,38.3,25.9c2.9,13.4,12.3,25.2,24.6,31C70.5,60.5,79.6,62.4,84.2,69.4"/>
<g>
	<g>
		<linearGradient id="SVGID_2_" gradientUnits="userSpaceOnUse" x1="21.3066" y1="162.6797" x2="99.707" y2="162.6797">
			<stop  offset="5.319150e-002" style="stop-color:#FF547A"/>
			<stop  offset="0.3777" style="stop-color:#ED2E54"/>
			<stop  offset="0.8138" style="stop-color:#ED2E54"/>
			<stop  offset="1" style="stop-color:#BA0021"/>
		</linearGradient>
		<path class="st3" d="M29.9,219.7c-0.8-14.9,2.5-29.5,10.9-42.8c9.4-14.9,26.4-26.9,43.9-29.3c4.6-1.9,9.7-3,14.9-3v-39.1
			c-43.2,0-78.4,35.2-78.4,78.4C21.3,196.9,24.4,209,29.9,219.7z"/>
	</g>
	<g>
		<linearGradient id="SVGID_3_" gradientUnits="userSpaceOnUse" x1="99.707" y1="228.5957" x2="178.1035" y2="228.5957">
			<stop  offset="0" style="stop-color:#2F7500"/>
			<stop  offset="0.1809" style="stop-color:#5EA92A"/>
			<stop  offset="0.6223" style="stop-color:#5EA900"/>
			<stop  offset="1" style="stop-color:#84EE4A"/>
		</linearGradient>
		<path class="st4" d="M169.5,148.3c0.8,14.9-2.5,29.5-10.9,42.8c-9.4,14.9-26.4,26.9-43.9,29.3c-4.6,1.9-9.7,3-14.9,3v85.5
			c0,0,78.4-81.6,78.4-124.8C178.1,171.2,175,159.1,169.5,148.3z"/>
	</g>
	<g>
		<linearGradient id="SVGID_4_" gradientUnits="userSpaceOnUse" x1="30.3919" y1="196.7363" x2="130.7711" y2="247.882">
			<stop  offset="0" style="stop-color:#C17725"/>
			<stop  offset="2.179027e-002" style="stop-color:#CC8026"/>
			<stop  offset="9.284326e-002" style="stop-color:#EA9A2A"/>
			<stop  offset="0.133" style="stop-color:#F5A42C"/>
			<stop  offset="0.6223" style="stop-color:#F5A42C"/>
			<stop  offset="0.8032" style="stop-color:#FFCA52"/>
			<stop  offset="1" style="stop-color:#FFCA52"/>
		</linearGradient>
		<path class="st5" d="M60.4,184c0-16.4,10.1-30.5,24.4-36.4C67.3,150,50.2,162.1,40.8,177c-8.4,13.2-11.7,27.9-10.9,42.8
			c13,25.3,69.8,89.1,69.8,89.1v-85.5C78,223.4,60.4,205.7,60.4,184z"/>
	</g>
	<g>
		<linearGradient id="SVGID_5_" gradientUnits="userSpaceOnUse" x1="78.9736" y1="135.8078" x2="159.3498" y2="190.0222">
			<stop  offset="0" style="stop-color:#FFCA1F"/>
			<stop  offset="0.3777" style="stop-color:#F5A400"/>
			<stop  offset="0.8138" style="stop-color:#F5A40C"/>
			<stop  offset="1" style="stop-color:#E17725"/>
		</linearGradient>
		<path class="st6" d="M139,183.5c0,16.4-10.1,31.1-24.4,37c17.5-2.4,34.6-14.2,44.1-29.6c8.3-13.3,11.5-27.6,10.7-42.5
			c-13-25.3-39.4-43.3-69.8-43.3v39.6C121.4,144.7,139,161.8,139,183.5z"/>
	</g>
	<g>
		<linearGradient id="SVGID_6_" gradientUnits="userSpaceOnUse" x1="44.583" y1="169.2612" x2="133.1976" y2="282.6828">
			<stop  offset="0" style="stop-color:#FFCA1F"/>
			<stop  offset="0.3777" style="stop-color:#F5A400"/>
			<stop  offset="0.8138" style="stop-color:#F5A40C"/>
			<stop  offset="1" style="stop-color:#E17725"/>
		</linearGradient>
		<path class="st7" d="M60.4,184c0-16.4,10.1-30.5,24.4-36.4C67.3,150,50.2,162.1,40.8,177c-8.4,13.2-11.7,27.9-10.9,42.8
			c13,25.3,69.8,89.1,69.8,89.1v-85.5C78,223.4,60.4,205.7,60.4,184z"/>
	</g>
</g>
<path d="M97.9,101.2c5.1-0.5,10.9,0.9,14.2,3.9c-5,3.4-8.5,7.8-10.9,13.3c-3.7-6.7-7.1-8.6-11.8-12.6
	C91,102.8,94.6,101.5,97.9,101.2"/>
<g>
	<defs>
		<path id="SVGID_7_" d="M64.3,56.2c7.5,3.6,16.7,5.5,21.3,12.5c3.2,4.8,3.4,11.1,2.7,16.8c-0.6,5.5-1.7,11.7,1.8,16
			c3.1,3.8,9.1,4.3,13.5,2.2c4.4-2.1,7.6-6.3,9.8-10.7c2.2-4.4,3.8-9.1,6-13.5c4-7.7,5.5-16.1,13.2-20.2
			c18.6-9.9,26.8-23.5,27.2-31.1c-19.9,9.5-37,15.9-59.1,16.4s-43.3-6.3-61.1-19.5C42.5,38.5,51.9,50.3,64.3,56.2"/>
	</defs>
	<clipPath id="SVGID_8_">
		<use xlink:href="#SVGID_7_"  style="overflow:visible;"/>
	</clipPath>
	<path class="st8" d="M98.7,68.7c2.4-9.9,8-20.4,13.6-27.4c-4.9-0.6-32.4-4.3-28.1,0.9C90.2,49.3,97.3,61.1,98.7,68.7"/>
</g>
<ellipse class="st9" cx="100" cy="184" rx="39.6" ry="39.3"/>
<path class="st9" d="M98.9,90.2c0-15.2-12.3-27.5-27.5-27.5C56.3,62.7,44,75,44,90.2c0,15.2,12.3,27.5,27.5,27.5
	C86.6,117.7,98.9,105.4,98.9,90.2"/>
<path class="st9" d="M158.3,90.5c0-15.2-12.3-27.5-27.5-27.5c-15.2,0-27.5,12.3-27.5,27.5c0,15.2,12.3,27.5,27.5,27.5
	C146,118,158.3,105.7,158.3,90.5"/>
<path class="st10" d="M147.4,92.6c0,0-1.5-10.6-13.6-8.6c-11.4,1.9-19.6,12.1-19.6,12.1S136.6,82.3,147.4,92.6z"/>
<path class="st11" d="M71.5,79.7c-6.2,1.2-10.3,7.1-9.1,13.3c1.2,6.2,7.1,10.3,13.3,9.1C81.9,101,86,95,84.9,88.8
	C83.7,82.6,77.7,78.5,71.5,79.7"/>
<path class="st9" d="M71.9,92.3c-1.6,0.3-2.6,1.8-2.3,3.3c0.3,1.6,1.8,2.6,3.3,2.3c1.6-0.3,2.6-1.8,2.3-3.3C75,93,73.5,92,71.9,92.3
	"/>
</svg>
