<?xml version="1.0" encoding="utf-8"?>
<!-- Generator: Adobe Illustrator 19.0.0, SVG Export Plug-In . SVG Version: 6.00 Build 0)  -->
<svg version="1.1" id="Layer_1" xmlns="http://www.w3.org/2000/svg" xmlns:xlink="http://www.w3.org/1999/xlink" x="0px" y="0px"
	 viewBox="0 0 203 330" style="enable-background:new 0 0 203 330;" xml:space="preserve">
<style type="text/css">
	.st0{fill:#757575;}
	.st1{fill-rule:evenodd;clip-rule:evenodd;}
	.st2{fill:url(#SVGID_1_);}
	.st3{fill:url(#SVGID_2_);}
	.st4{fill:url(#SVGID_3_);}
	.st5{fill:url(#SVGID_4_);}
	.st6{fill:url(#SVGID_5_);}
	.st7{fill:#FFFFFF;}
	.st8{clip-path:url(#SVGID_7_);fill:#757575;}
	.st9{fill:url(#SVGID_8_);}
	.st10{fill-rule:evenodd;clip-rule:evenodd;fill:url(#SVGID_9_);}
	.st11{fill-rule:evenodd;clip-rule:evenodd;fill:url(#SVGID_10_);}
</style>
<path class="st0" d="M32.8,239.9c0,0-6,1.1-13.4-8.2c0,0-50.1-60.1,25.5-114.7c0,0-37.2-11.9-11.2-60c0,0,40.7-75.1,116.1-26.9
	c0,0,58.1,61.1,6.8,82c0,0,69.8,47,31.9,106.7c0,0-17.6,21.1-18.3,14.2L32.8,239.9z"/>
<path class="st1" d="M104.6,102.6c4.2,3.5,4.9,8.3,1.8,12.8c-1.6,2.3-3.6,4.4-5.3,6.7c-1.6,2.1-2.9,4.5-4.1,6.4
	c-3.2-4.3-6.2-8.4-9.4-12.5c-3.5-4.4-3.5-9,0.4-12.8"/>
<linearGradient id="SVGID_1_" gradientUnits="userSpaceOnUse" x1="34.9143" y1="63.689" x2="163.5177" y2="63.689">
	<stop  offset="5.319150e-002" style="stop-color:#EA567B"/>
	<stop  offset="0.3777" style="stop-color:#E53357"/>
	<stop  offset="0.8138" style="stop-color:#E53357"/>
	<stop  offset="1" style="stop-color:#B81A26"/>
</linearGradient>
<path class="st2" d="M84.1,67.6c3.4,5.2,3.6,11.8,2.9,18c-0.7,5.9-1.9,12.5,1.9,17.1c3.4,4.1,9.7,4.6,14.5,2.3
	c4.8-2.3,8.1-6.7,10.5-11.4c2.4-4.7,4-9.8,6.5-14.4c4.3-8.2,5.9-17.3,14.1-21.7c19.9-10.6,28.7-25.1,29.1-33.3
	c-21.3,10.1-39.6,17-63.2,17.6C76.7,42.4,53.9,35,34.9,21C38,35.3,48.1,47.9,61.3,54.2C69.4,58.1,79.1,60.1,84.1,67.6"/>
<g>
	<g>
		<linearGradient id="SVGID_2_" gradientUnits="userSpaceOnUse" x1="16.7402" y1="167.4282" x2="100.6504" y2="167.4282">
			<stop  offset="5.319150e-002" style="stop-color:#EA567B"/>
			<stop  offset="0.3777" style="stop-color:#E53357"/>
			<stop  offset="0.8138" style="stop-color:#E53357"/>
			<stop  offset="1" style="stop-color:#B81A26"/>
		</linearGradient>
		<path class="st3" d="M26,228.5c-0.9-15.9,2.7-31.6,11.7-45.8c10-15.9,28.3-28.8,47-31.4c4.9-2,10.3-3.2,16-3.2v-41.8
			c-46.3,0-83.9,37.6-83.9,83.9C16.7,204,20.1,217,26,228.5z"/>
	</g>
	<g>
		<linearGradient id="SVGID_3_" gradientUnits="userSpaceOnUse" x1="26.4637" y1="203.8802" x2="133.8983" y2="258.6208">
			<stop  offset="0" style="stop-color:#BF7726"/>
			<stop  offset="2.343526e-002" style="stop-color:#CB8027"/>
			<stop  offset="9.343784e-002" style="stop-color:#E99929"/>
			<stop  offset="0.133" style="stop-color:#F4A22A"/>
			<stop  offset="0.6223" style="stop-color:#F4A22A"/>
			<stop  offset="0.8032" style="stop-color:#FBC853"/>
			<stop  offset="1" style="stop-color:#FBC853"/>
		</linearGradient>
		<path class="st4" d="M58.5,190.3c0-17.6,10.8-32.6,26.1-38.9c-18.7,2.6-37,15.4-47,31.4c-9,14.2-12.5,29.9-11.7,45.8
			c13.9,27.1,74.7,95.4,74.7,95.4v-91.5C77.4,232.4,58.5,213.5,58.5,190.3z"/>
	</g>
	<g>
		<linearGradient id="SVGID_4_" gradientUnits="userSpaceOnUse" x1="78.4606" y1="138.6667" x2="164.4882" y2="196.693">
			<stop  offset="0" style="stop-color:#FCC721"/>
			<stop  offset="0.3777" style="stop-color:#F4A30B"/>
			<stop  offset="0.8138" style="stop-color:#F4A30E"/>
			<stop  offset="1" style="stop-color:#DF7624"/>
		</linearGradient>
		<path class="st5" d="M142.8,189.7c0,17.6-10.8,33.2-26.1,39.5c18.7-2.6,37-15.2,47.2-31.7c8.9-14.3,12.3-29.5,11.5-45.5
			c-13.9-27.1-42.2-46.3-74.7-46.3v42.4C123.9,148.2,142.8,166.5,142.8,189.7z"/>
	</g>
	<g>
		<linearGradient id="SVGID_5_" gradientUnits="userSpaceOnUse" x1="41.6521" y1="174.4727" x2="136.4962" y2="295.8676">
			<stop  offset="0" style="stop-color:#FCC721"/>
			<stop  offset="0.3777" style="stop-color:#F4A30B"/>
			<stop  offset="0.8138" style="stop-color:#F4A30E"/>
			<stop  offset="1" style="stop-color:#DF7624"/>
		</linearGradient>
		<path class="st6" d="M58.5,190.3c0-17.6,10.8-32.6,26.1-38.9c-18.7,2.6-37,15.4-47,31.4c-9,14.2-12.5,29.9-11.7,45.8
			c13.9,27.1,74.7,95.4,74.7,95.4v-91.5C77.4,232.4,58.5,213.5,58.5,190.3z"/>
	</g>
</g>
<path d="M98.7,101.6c5.4-0.6,11.6,1,15.2,4.2c-5.3,3.7-9.1,8.3-11.6,14.3c-4-7.1-7.5-9.2-12.6-13.5
	C91.4,103.4,95.2,101.9,98.7,101.6"/>
<path class="st7" d="M99.8,89.9c0-16.2-13.2-29.4-29.4-29.4C54.2,60.5,41,73.6,41,89.9c0,16.2,13.2,29.4,29.4,29.4
	C86.7,119.3,99.8,106.1,99.8,89.9"/>
<path class="st7" d="M163.4,90.2c0-16.2-13.2-29.4-29.4-29.4c-16.2,0-29.4,13.2-29.4,29.4c0,16.2,13.2,29.4,29.4,29.4
	C150.2,119.6,163.4,106.4,163.4,90.2"/>
<g>
	<defs>
		<path id="SVGID_6_" d="M62.7,53.4c8.1,3.8,17.9,5.9,22.8,13.4c3.4,5.2,3.6,11.8,2.9,18c-0.7,5.9-1.9,12.5,1.9,17.1
			c3.4,4.1,9.7,4.6,14.5,2.3c4.8-2.3,8.1-6.7,10.5-11.4c2.4-4.7,4-9.8,6.5-14.4c4.3-8.2,5.9-17.3,14.1-21.7
			c19.9-10.6,28.7-25.1,29.1-33.3c-21.3,10.1-39.6,17-63.2,17.6c-23.6,0.6-46.4-6.8-65.4-20.8C39.5,34.5,49.5,47.2,62.7,53.4"/>
	</defs>
	<clipPath id="SVGID_7_">
		<use xlink:href="#SVGID_6_"  style="overflow:visible;"/>
	</clipPath>
	<path class="st8" d="M99.6,66.9c2.6-10.6,8.5-21.8,14.6-29.3c-5.2-0.6-34.7-4.6-30,0.9C90.5,46.1,98.1,58.8,99.6,66.9"/>
</g>
<ellipse class="st7" cx="100.9" cy="190.3" rx="42.4" ry="42.1"/>
<path class="st7" d="M133,82.5c0,2.1-1.7,3.8-3.8,3.8c-2.1,0-3.8-1.7-3.8-3.8c0-2.1,1.7-3.8,3.8-3.8C131.3,78.7,133,80.4,133,82.5z"
	/>
<g>
	<linearGradient id="SVGID_8_" gradientUnits="userSpaceOnUse" x1="100.6504" y1="237.979" x2="184.56" y2="237.979">
		<stop  offset="0" style="stop-color:#307732"/>
		<stop  offset="0.1809" style="stop-color:#5FA931"/>
		<stop  offset="0.6223" style="stop-color:#5FA931"/>
		<stop  offset="1" style="stop-color:#8FBE40"/>
	</linearGradient>
	<path class="st9" d="M175.4,152.1c0.9,15.9-2.7,31.6-11.7,45.8c-10,15.9-28.3,28.8-47,31.4c-4.9,2-10.3,3.2-16,3.2v91.5
		c0,0,83.9-87.3,83.9-133.6C184.6,176.5,181.2,163.5,175.4,152.1z"/>
</g>
<linearGradient id="SVGID_9_" gradientUnits="userSpaceOnUse" x1="48.634" y1="92.0278" x2="92.2069" y2="92.0278">
	<stop  offset="5.319150e-002" style="stop-color:#EA567B"/>
	<stop  offset="0.3777" style="stop-color:#E63256"/>
	<stop  offset="0.8138" style="stop-color:#E63256"/>
	<stop  offset="1" style="stop-color:#B91825"/>
</linearGradient>
<path class="st10" d="M70.4,111.7c-0.9-0.8-1.8-1.5-2.7-2.3c-3.2-2.8-6.4-5.6-9.4-8.7c-2.5-2.6-5-5.2-7-8.2c-1.1-1.6-2-3.3-2.4-5.2
	c-1.2-6.2,2.4-12.6,8.3-14.5c4.4-1.4,8.4-0.2,11.9,2.9c0.3,0.2,0.5,0.5,0.8,0.8c0.2,0.3,0.4,0.6,0.7,0.9c0.1-0.1,0.2-0.2,0.3-0.3
	c2.1-2.7,4.9-4.2,8.2-4.6c6-0.8,10.6,3.2,12.3,7.7c1.6,4.1,1.3,8-1.1,11.7c-1.7,2.6-3.7,5-5.8,7.2c-4.2,4.5-8.9,8.6-13.6,12.5
	C70.6,111.6,70.5,111.7,70.4,111.7z"/>
<linearGradient id="SVGID_10_" gradientUnits="userSpaceOnUse" x1="112.8772" y1="92.0278" x2="156.45" y2="92.0278">
	<stop  offset="5.319150e-002" style="stop-color:#EA567B"/>
	<stop  offset="0.3777" style="stop-color:#E63256"/>
	<stop  offset="0.8138" style="stop-color:#E63256"/>
	<stop  offset="1" style="stop-color:#B91825"/>
</linearGradient>
<path class="st11" d="M134.6,111.7c-0.9-0.8-1.8-1.5-2.7-2.3c-3.2-2.8-6.4-5.6-9.4-8.7c-2.5-2.6-5-5.2-7-8.2c-1.1-1.6-2-3.3-2.4-5.2
	c-1.2-6.2,2.4-12.6,8.3-14.5c4.4-1.4,8.4-0.2,11.9,2.9c0.3,0.2,0.5,0.5,0.8,0.8c0.2,0.3,0.4,0.6,0.7,0.9c0.1-0.1,0.2-0.2,0.3-0.3
	c2.1-2.7,4.9-4.2,8.2-4.6c6-0.8,10.6,3.2,12.3,7.7c1.6,4.1,1.3,8-1.1,11.7c-1.7,2.6-3.7,5-5.8,7.2c-4.2,4.5-8.9,8.6-13.6,12.5
	C134.8,111.6,134.7,111.7,134.6,111.7z"/>
</svg>
